M48
; DRILL file {KiCad 5.99.0-unknown-bc0fc0b~88~ubuntu20.04.1} date Fri May  8 18:16:50 2020
; FORMAT={-:-/ absolute / metric / decimal}
; #@! TF.CreationDate,2020-05-08T18:16:50+02:00
; #@! TF.GenerationSoftware,Kicad,Pcbnew,5.99.0-unknown-bc0fc0b~88~ubuntu20.04.1
; #@! TF.FileFunction,Plated,1,2,PTH
FMAT,2
METRIC
T1C0.400
T2C0.750
T3C0.800
T4C0.900
T5C1.000
T6C1.100
T7C2.159
%
G90
G05
T1
X46.99Y-107.95
X48.461Y-144.082
X49.712Y-134.685
X52.705Y-119.38
X54.61Y-127.0
X55.319Y-145.533
X57.15Y-138.794
X58.42Y-139.7
X61.57Y-118.11
X62.23Y-114.042
X62.23Y-126.365
X64.77Y-108.309
X66.675Y-151.151
X68.58Y-120.65
X70.718Y-116.481
X71.12Y-146.05
X71.755Y-130.175
X74.277Y-146.409
X74.295Y-132.08
X74.295Y-151.765
X74.57Y-137.389
X74.93Y-123.825
X75.296Y-147.32
X76.498Y-143.897
X76.546Y-91.052
X76.787Y-78.105
X76.92Y-107.472
X77.149Y-142.32
X77.965Y-135.115
X77.965Y-150.456
X78.739Y-139.337
X78.74Y-126.365
X79.672Y-153.094
X80.01Y-125.095
X82.55Y-75.565
X83.046Y-138.43
X83.487Y-129.93
X86.995Y-150.495
X87.485Y-86.505
X88.734Y-113.953
X88.778Y-123.616
X89.535Y-62.865
X90.805Y-153.035
X90.805Y-159.565
X90.822Y-102.87
X91.44Y-73.66
X92.075Y-158.115
X92.71Y-73.66
X92.71Y-100.965
X92.71Y-102.87
X94.395Y-133.531
X94.615Y-140.335
X95.25Y-93.98
X95.395Y-80.894
X95.885Y-55.808
X98.425Y-151.13
X99.554Y-118.584
X100.196Y-133.732
X101.6Y-125.095
X102.235Y-140.208
X103.256Y-89.255
X103.937Y-137.396
X104.185Y-74.295
X104.609Y-119.611
X104.707Y-126.798
X104.775Y-101.6
X105.063Y-163.695
X105.702Y-128.008
X106.045Y-104.14
X106.68Y-87.787
X106.682Y-80.242
X107.596Y-137.79
X107.607Y-141.086
X109.117Y-158.986
X109.22Y-66.826
X109.22Y-80.01
X109.855Y-138.144
X111.395Y-143.515
X112.118Y-135.255
X112.254Y-158.75
X112.814Y-48.044
X113.03Y-74.295
X113.449Y-67.905
X113.665Y-136.525
X114.3Y-72.39
X114.398Y-158.75
X114.935Y-127.0
X117.475Y-121.92
X117.475Y-166.37
X119.51Y-80.469
X119.789Y-114.185
X120.015Y-146.05
X120.795Y-102.87
X122.602Y-65.445
X125.095Y-88.265
X128.27Y-74.909
X129.54Y-132.08
X130.175Y-76.2
T2
X66.04Y-155.575
X67.31Y-155.575
X68.58Y-155.575
T3
X100.33Y-85.805
X100.33Y-90.805
X127.0Y-73.025
X127.0Y-78.025
X62.865Y-115.57
X62.865Y-120.57
X52.07Y-37.465
X52.07Y-45.085
X54.61Y-37.465
X54.61Y-45.085
X57.15Y-37.465
X57.15Y-45.085
X59.69Y-37.465
X59.69Y-45.085
X62.23Y-37.465
X62.23Y-45.085
X64.77Y-37.465
X64.77Y-45.085
X67.31Y-37.465
X67.31Y-45.085
X69.85Y-37.465
X69.85Y-45.085
X74.93Y-106.045
X74.93Y-111.045
X130.81Y-106.68
X130.81Y-114.3
X73.66Y-52.705
X73.66Y-57.705
X69.85Y-106.045
X69.85Y-111.045
X130.81Y-95.885
X130.81Y-103.505
X113.665Y-139.055
X113.665Y-144.055
X86.36Y-116.205
X86.36Y-131.445
X88.9Y-116.205
X88.9Y-131.445
X91.44Y-116.205
X91.44Y-131.445
X93.98Y-116.205
X93.98Y-131.445
X96.52Y-116.205
X96.52Y-131.445
X99.06Y-116.205
X99.06Y-131.445
X101.6Y-116.205
X101.6Y-131.445
X104.14Y-116.205
X104.14Y-131.445
X106.68Y-116.205
X106.68Y-131.445
X109.22Y-116.205
X109.22Y-131.445
X111.76Y-116.205
X111.76Y-131.445
X114.3Y-116.205
X114.3Y-131.445
X116.84Y-116.205
X116.84Y-131.445
X119.38Y-116.205
X119.38Y-131.445
X78.74Y-70.485
X78.74Y-78.105
X81.28Y-70.485
X81.28Y-78.105
X83.82Y-70.485
X83.82Y-78.105
X86.36Y-70.485
X86.36Y-78.105
X88.9Y-70.485
X88.9Y-78.105
X91.44Y-70.485
X91.44Y-78.105
X93.98Y-70.485
X93.98Y-78.105
X96.52Y-70.485
X96.52Y-78.105
X50.8Y-103.505
X50.8Y-111.125
X53.34Y-103.505
X53.34Y-111.125
X55.88Y-103.505
X55.88Y-111.125
X58.42Y-103.505
X58.42Y-111.125
X60.96Y-103.505
X60.96Y-111.125
X63.5Y-103.505
X63.5Y-111.125
X66.04Y-103.505
X66.04Y-111.125
X46.99Y-135.89
X46.99Y-143.51
X105.41Y-70.405
X105.41Y-78.025
X107.95Y-70.405
X107.95Y-78.025
X110.49Y-70.405
X110.49Y-78.025
X113.03Y-70.405
X113.03Y-78.025
X115.57Y-70.405
X115.57Y-78.025
X118.11Y-70.405
X118.11Y-78.025
X120.65Y-70.405
X120.65Y-78.025
X123.19Y-70.405
X123.19Y-78.025
X59.69Y-98.425
X67.31Y-98.425
X130.175Y-41.91
X130.175Y-49.53
X46.99Y-123.825
X46.99Y-131.445
X49.53Y-123.825
X49.53Y-131.445
X52.07Y-123.825
X52.07Y-131.445
X54.61Y-123.825
X54.61Y-131.445
X57.15Y-123.825
X57.15Y-131.445
X59.69Y-123.825
X59.69Y-131.445
X62.23Y-123.825
X62.23Y-131.445
X64.77Y-123.825
X64.77Y-131.445
X124.46Y-123.825
X124.46Y-131.445
X127.0Y-123.825
X127.0Y-131.445
X123.19Y-116.205
X123.19Y-121.205
X64.85Y-148.59
X69.85Y-148.59
X125.135Y-137.795
X127.635Y-137.795
X54.61Y-135.89
X54.61Y-143.51
X57.15Y-135.89
X57.15Y-143.51
X59.69Y-135.89
X59.69Y-143.51
X62.23Y-135.89
X62.23Y-143.51
X64.77Y-135.89
X64.77Y-143.51
X67.31Y-135.89
X67.31Y-143.51
X69.85Y-135.89
X69.85Y-143.51
X73.66Y-80.645
X73.66Y-85.645
X89.535Y-148.59
X89.535Y-156.21
X92.075Y-148.59
X92.075Y-156.21
X94.615Y-148.59
X94.615Y-156.21
X97.155Y-148.59
X97.155Y-156.21
X99.695Y-148.59
X99.695Y-156.21
X102.235Y-148.59
X102.235Y-156.21
X104.775Y-148.59
X104.775Y-156.21
X107.315Y-148.59
X107.315Y-156.21
X109.855Y-148.59
X109.855Y-156.21
X112.395Y-148.59
X112.395Y-156.21
X113.665Y-45.085
X113.665Y-52.705
X80.645Y-148.59
X80.645Y-156.21
X54.61Y-62.865
X54.61Y-70.485
X57.15Y-62.865
X57.15Y-70.485
X59.69Y-62.865
X59.69Y-70.485
X62.23Y-62.865
X62.23Y-70.485
X64.77Y-62.865
X64.77Y-70.485
X67.31Y-62.865
X67.31Y-70.485
X69.85Y-62.865
X69.85Y-70.485
X125.095Y-45.085
X125.095Y-52.705
X124.46Y-60.325
X124.46Y-65.325
X121.285Y-45.085
X121.285Y-52.705
X73.66Y-65.485
X73.66Y-70.485
X125.135Y-146.685
X127.635Y-146.685
X54.65Y-93.345
X57.15Y-93.345
X116.205Y-151.13
X116.205Y-156.13
X81.915Y-135.8
X81.915Y-143.42
X84.455Y-135.8
X84.455Y-143.42
X86.995Y-135.8
X86.995Y-143.42
X89.535Y-135.8
X89.535Y-143.42
X92.075Y-135.8
X92.075Y-143.42
X94.615Y-135.8
X94.615Y-143.42
X97.155Y-135.8
X97.155Y-143.42
X99.695Y-135.8
X99.695Y-143.42
X102.235Y-135.8
X102.235Y-143.42
X104.775Y-135.8
X104.775Y-143.42
X107.315Y-135.8
X107.315Y-143.42
X109.855Y-135.8
X109.855Y-143.42
X82.55Y-123.825
X82.55Y-131.445
X73.66Y-40.005
X73.66Y-45.005
X130.81Y-85.09
X130.81Y-92.71
X78.74Y-95.885
X78.74Y-111.125
X81.28Y-95.885
X81.28Y-111.125
X83.82Y-95.885
X83.82Y-111.125
X86.36Y-95.885
X86.36Y-111.125
X88.9Y-95.885
X88.9Y-111.125
X91.44Y-95.885
X91.44Y-111.125
X93.98Y-95.885
X93.98Y-111.125
X96.52Y-95.885
X96.52Y-111.125
X99.06Y-95.885
X99.06Y-111.125
X101.6Y-95.885
X101.6Y-111.125
X104.14Y-95.885
X104.14Y-111.125
X106.68Y-95.885
X106.68Y-111.125
X109.22Y-95.885
X109.22Y-111.125
X111.76Y-95.885
X111.76Y-111.125
X114.3Y-95.885
X114.3Y-111.125
X116.84Y-95.885
X116.84Y-111.125
X119.38Y-95.885
X119.38Y-111.125
X121.92Y-95.885
X121.92Y-111.125
X124.46Y-95.885
X124.46Y-111.125
X127.0Y-95.885
X127.0Y-111.125
X105.41Y-57.785
X105.41Y-65.405
X107.95Y-57.785
X107.95Y-65.405
X110.49Y-57.785
X110.49Y-65.405
X113.03Y-57.785
X113.03Y-65.405
X115.57Y-57.785
X115.57Y-65.405
X118.11Y-57.785
X118.11Y-65.405
X120.65Y-57.785
X120.65Y-65.405
X66.675Y-119.38
X74.295Y-119.38
X54.61Y-50.165
X54.61Y-57.785
X57.15Y-50.165
X57.15Y-57.785
X59.69Y-50.165
X59.69Y-57.785
X62.23Y-50.165
X62.23Y-57.785
X64.77Y-50.165
X64.77Y-57.785
X67.31Y-50.165
X67.31Y-57.785
X69.85Y-50.165
X69.85Y-57.785
X73.025Y-148.59
X73.025Y-156.21
X119.38Y-135.335
X119.38Y-140.335
X76.835Y-148.59
X76.835Y-156.21
X127.0Y-85.805
X127.0Y-90.805
X46.355Y-148.59
X46.355Y-156.21
X48.895Y-148.59
X48.895Y-156.21
X51.435Y-148.59
X51.435Y-156.21
X53.975Y-148.59
X53.975Y-156.21
X56.515Y-148.59
X56.515Y-156.21
X59.055Y-148.59
X59.055Y-156.21
X61.595Y-148.59
X61.595Y-156.21
X84.455Y-148.68
X84.455Y-156.3
X119.38Y-143.51
X119.38Y-148.51
X78.105Y-45.085
X78.105Y-52.705
X54.65Y-117.475
X57.15Y-117.475
X66.675Y-115.57
X74.295Y-115.57
X69.85Y-98.425
X74.85Y-98.425
X117.475Y-45.085
X117.475Y-52.705
X78.74Y-123.825
X78.74Y-131.445
X109.855Y-45.085
X109.855Y-52.705
X105.41Y-83.185
X105.41Y-90.805
X107.95Y-83.185
X107.95Y-90.805
X110.49Y-83.185
X110.49Y-90.805
X113.03Y-83.185
X113.03Y-90.805
X115.57Y-83.185
X115.57Y-90.805
X118.11Y-83.185
X118.11Y-90.805
X120.65Y-83.185
X120.65Y-90.805
X123.19Y-83.185
X123.19Y-90.805
X78.74Y-57.785
X78.74Y-65.405
X81.28Y-57.785
X81.28Y-65.405
X83.82Y-57.785
X83.82Y-65.405
X86.36Y-57.785
X86.36Y-65.405
X88.9Y-57.785
X88.9Y-65.405
X91.44Y-57.785
X91.44Y-65.405
X93.98Y-57.785
X93.98Y-65.405
X68.58Y-126.445
X68.58Y-131.445
X73.66Y-138.51
X73.66Y-143.51
X57.15Y-74.295
X64.77Y-74.295
X54.61Y-78.105
X54.61Y-85.725
X57.15Y-78.105
X57.15Y-85.725
X59.69Y-78.105
X59.69Y-85.725
X62.23Y-78.105
X62.23Y-85.725
X64.77Y-78.105
X64.77Y-85.725
X67.31Y-78.105
X67.31Y-85.725
X69.85Y-78.105
X69.85Y-85.725
X50.8Y-135.89
X50.8Y-143.51
X97.79Y-59.69
X97.79Y-64.69
X64.95Y-92.075
X69.85Y-92.075
X130.175Y-65.405
X130.175Y-73.025
X78.74Y-83.265
X78.74Y-90.885
X81.28Y-83.265
X81.28Y-90.885
X83.82Y-83.265
X83.82Y-90.885
X86.36Y-83.265
X86.36Y-90.885
X88.9Y-83.265
X88.9Y-90.885
X91.44Y-83.265
X91.44Y-90.885
X93.98Y-83.265
X93.98Y-90.885
X96.52Y-83.265
X96.52Y-90.885
X100.33Y-73.025
X100.33Y-78.025
T4
X132.08Y-52.705
X132.08Y-55.245
X132.08Y-59.69
X132.08Y-62.23
T5
X42.545Y-66.04
X42.545Y-72.54
X47.045Y-66.04
X47.045Y-72.54
X127.0Y-161.925
X127.0Y-164.465
X127.0Y-167.005
X81.915Y-46.355
X81.915Y-48.895
X84.455Y-46.355
X84.455Y-48.895
X46.355Y-161.925
X46.355Y-163.195
X46.355Y-165.735
X46.355Y-167.005
X48.895Y-161.925
X48.895Y-163.195
X48.895Y-165.735
X48.895Y-167.005
X51.435Y-161.925
X51.435Y-163.195
X51.435Y-165.735
X51.435Y-167.005
X53.975Y-161.925
X53.975Y-163.195
X53.975Y-165.735
X53.975Y-167.005
X56.515Y-161.925
X56.515Y-163.195
X56.515Y-165.735
X56.515Y-167.005
X59.055Y-161.925
X59.055Y-163.195
X59.055Y-165.735
X59.055Y-167.005
X61.595Y-161.925
X61.595Y-163.195
X61.595Y-165.735
X61.595Y-167.005
X64.135Y-161.925
X64.135Y-163.195
X64.135Y-165.735
X64.135Y-167.005
X66.675Y-161.925
X66.675Y-163.195
X66.675Y-165.735
X66.675Y-167.005
X69.215Y-161.925
X69.215Y-163.195
X69.215Y-165.735
X69.215Y-167.005
X71.755Y-161.925
X71.755Y-163.195
X71.755Y-165.735
X71.755Y-167.005
X74.295Y-161.925
X74.295Y-163.195
X74.295Y-165.735
X74.295Y-167.005
X76.835Y-161.925
X76.835Y-163.195
X76.835Y-165.735
X76.835Y-167.005
X79.375Y-161.925
X79.375Y-163.195
X79.375Y-165.735
X79.375Y-167.005
X81.915Y-161.925
X81.915Y-163.195
X81.915Y-165.735
X81.915Y-167.005
X84.455Y-161.925
X84.455Y-163.195
X84.455Y-165.735
X84.455Y-167.005
X86.995Y-161.925
X86.995Y-163.195
X86.995Y-165.735
X86.995Y-167.005
X89.535Y-161.925
X89.535Y-163.195
X89.535Y-165.735
X89.535Y-167.005
X92.075Y-161.925
X92.075Y-163.195
X92.075Y-165.735
X92.075Y-167.005
X94.615Y-161.925
X94.615Y-163.195
X94.615Y-165.735
X94.615Y-167.005
X97.155Y-161.925
X97.155Y-163.195
X97.155Y-165.735
X97.155Y-167.005
X99.695Y-161.925
X99.695Y-163.195
X99.695Y-165.735
X99.695Y-167.005
X102.235Y-161.925
X102.235Y-163.195
X102.235Y-165.735
X102.235Y-167.005
X107.315Y-161.925
X107.315Y-163.195
X107.315Y-165.735
X107.315Y-167.005
X109.855Y-161.925
X109.855Y-163.195
X109.855Y-165.735
X109.855Y-167.005
X112.395Y-161.925
X112.395Y-163.195
X112.395Y-165.735
X112.395Y-167.005
X114.935Y-161.925
X114.935Y-163.195
X114.935Y-165.735
X114.935Y-167.005
X78.74Y-117.475
X78.74Y-120.015
X81.28Y-117.475
X81.28Y-120.015
X84.455Y-37.465
X84.455Y-40.005
X86.995Y-37.465
X86.995Y-40.005
X89.535Y-37.465
X89.535Y-40.005
X92.075Y-37.465
X92.075Y-40.005
X94.615Y-37.465
X94.615Y-40.005
X97.155Y-37.465
X97.155Y-40.005
X99.695Y-37.465
X99.695Y-40.005
X102.235Y-37.465
X102.235Y-40.005
X104.775Y-37.465
X104.775Y-40.005
X107.315Y-37.465
X107.315Y-40.005
X109.855Y-37.465
X109.855Y-40.005
X112.395Y-37.465
X112.395Y-40.005
X114.935Y-37.465
X114.935Y-40.005
X117.475Y-37.465
X117.475Y-40.005
X120.015Y-37.465
X120.015Y-40.005
X122.555Y-37.465
X122.555Y-40.005
X125.095Y-37.465
X125.095Y-40.005
X88.9Y-46.355
X91.44Y-46.355
X93.98Y-46.355
X96.52Y-46.355
X99.06Y-46.355
T6
X122.555Y-154.94
X125.095Y-154.94
X127.635Y-154.94
T7
X44.45Y-47.498
X44.45Y-52.324
X44.45Y-57.15
T0
M30
