G04 #@! TF.GenerationSoftware,KiCad,Pcbnew,5.99.0-unknown-bc0fc0b~88~ubuntu20.04.1*
G04 #@! TF.CreationDate,2020-05-08T18:16:53+02:00*
G04 #@! TF.ProjectId,beta128_r0.3,62657461-3132-4385-9f72-302e332e6b69,rev?*
G04 #@! TF.SameCoordinates,Original*
G04 #@! TF.FileFunction,Soldermask,Top*
G04 #@! TF.FilePolarity,Negative*
%FSLAX46Y46*%
G04 Gerber Fmt 4.6, Leading zero omitted, Abs format (unit mm)*
G04 Created by KiCad (PCBNEW 5.99.0-unknown-bc0fc0b~88~ubuntu20.04.1) date 2020-05-08 18:16:53*
%MOMM*%
%LPD*%
G01*
G04 APERTURE LIST*
%ADD10O,1.600000X1.600000*%
%ADD11C,1.600000*%
%ADD12O,1.600000X2.400000*%
%ADD13R,1.600000X2.400000*%
%ADD14R,1.778000X7.620000*%
%ADD15C,3.302000*%
%ADD16R,1.600000X1.600000*%
%ADD17C,3.000000*%
%ADD18C,1.700000*%
%ADD19O,1.700000X1.700000*%
%ADD20R,1.700000X1.700000*%
%ADD21R,1.050000X1.500000*%
%ADD22O,1.050000X1.500000*%
%ADD23C,1.500000*%
%ADD24O,1.905000X2.000000*%
%ADD25R,1.905000X2.000000*%
%ADD26C,1.800000*%
%ADD27R,1.800000X1.800000*%
G04 APERTURE END LIST*
D10*
X57150000Y-74295000D03*
D11*
X64770000Y-74295000D03*
D12*
X93980000Y-65405000D03*
X78740000Y-57785000D03*
X91440000Y-65405000D03*
X81280000Y-57785000D03*
X88900000Y-65405000D03*
X83820000Y-57785000D03*
X86360000Y-65405000D03*
X86360000Y-57785000D03*
X83820000Y-65405000D03*
X88900000Y-57785000D03*
X81280000Y-65405000D03*
X91440000Y-57785000D03*
X78740000Y-65405000D03*
D13*
X93980000Y-57785000D03*
D14*
X114935000Y-180340000D03*
X112395000Y-180340000D03*
X109855000Y-180340000D03*
X107315000Y-180340000D03*
X102235000Y-180340000D03*
X99695000Y-180340000D03*
X97155000Y-180340000D03*
X94615000Y-180340000D03*
X92075000Y-180340000D03*
X89535000Y-180340000D03*
X86995000Y-180340000D03*
X84455000Y-180340000D03*
X81915000Y-180340000D03*
X79375000Y-180340000D03*
X76835000Y-180340000D03*
X74295000Y-180340000D03*
X71755000Y-180340000D03*
X69215000Y-180340000D03*
X66675000Y-180340000D03*
X64135000Y-180340000D03*
X61595000Y-180340000D03*
X59055000Y-180340000D03*
X56515000Y-180340000D03*
X53975000Y-180340000D03*
X51435000Y-180340000D03*
X48895000Y-180340000D03*
X46355000Y-180340000D03*
X114935000Y-175895000D03*
X112395000Y-175895000D03*
X109855000Y-175895000D03*
X107315000Y-175895000D03*
X102235000Y-175895000D03*
X99695000Y-175895000D03*
X97155000Y-175895000D03*
X94615000Y-175895000D03*
X92075000Y-175895000D03*
X89535000Y-175895000D03*
X86995000Y-175895000D03*
X84455000Y-175895000D03*
X81915000Y-175895000D03*
X79375000Y-175895000D03*
X76835000Y-175895000D03*
X74295000Y-175895000D03*
X71755000Y-175895000D03*
X69215000Y-175895000D03*
X66675000Y-175895000D03*
X64135000Y-175895000D03*
X61595000Y-175895000D03*
X59055000Y-175895000D03*
X56515000Y-175895000D03*
X53975000Y-175895000D03*
X51435000Y-175895000D03*
X48895000Y-175895000D03*
X46355000Y-175895000D03*
D15*
X44450000Y-47498000D03*
X44450000Y-52324000D03*
X44450000Y-57150000D03*
G36*
G01*
X114046000Y-163497260D02*
X114046000Y-162892740D01*
G75*
G02*
X114632740Y-162306000I586740J0D01*
G01*
X115237260Y-162306000D01*
G75*
G02*
X115824000Y-162892740I0J-586740D01*
G01*
X115824000Y-163497260D01*
G75*
G02*
X115237260Y-164084000I-586740J0D01*
G01*
X114632740Y-164084000D01*
G75*
G02*
X114046000Y-163497260I0J586740D01*
G01*
G37*
G36*
G01*
X111506000Y-163497260D02*
X111506000Y-162892740D01*
G75*
G02*
X112092740Y-162306000I586740J0D01*
G01*
X112697260Y-162306000D01*
G75*
G02*
X113284000Y-162892740I0J-586740D01*
G01*
X113284000Y-163497260D01*
G75*
G02*
X112697260Y-164084000I-586740J0D01*
G01*
X112092740Y-164084000D01*
G75*
G02*
X111506000Y-163497260I0J586740D01*
G01*
G37*
G36*
G01*
X108966000Y-163497260D02*
X108966000Y-162892740D01*
G75*
G02*
X109552740Y-162306000I586740J0D01*
G01*
X110157260Y-162306000D01*
G75*
G02*
X110744000Y-162892740I0J-586740D01*
G01*
X110744000Y-163497260D01*
G75*
G02*
X110157260Y-164084000I-586740J0D01*
G01*
X109552740Y-164084000D01*
G75*
G02*
X108966000Y-163497260I0J586740D01*
G01*
G37*
G36*
G01*
X106426000Y-163497260D02*
X106426000Y-162892740D01*
G75*
G02*
X107012740Y-162306000I586740J0D01*
G01*
X107617260Y-162306000D01*
G75*
G02*
X108204000Y-162892740I0J-586740D01*
G01*
X108204000Y-163497260D01*
G75*
G02*
X107617260Y-164084000I-586740J0D01*
G01*
X107012740Y-164084000D01*
G75*
G02*
X106426000Y-163497260I0J586740D01*
G01*
G37*
G36*
G01*
X101346000Y-163497260D02*
X101346000Y-162892740D01*
G75*
G02*
X101932740Y-162306000I586740J0D01*
G01*
X102537260Y-162306000D01*
G75*
G02*
X103124000Y-162892740I0J-586740D01*
G01*
X103124000Y-163497260D01*
G75*
G02*
X102537260Y-164084000I-586740J0D01*
G01*
X101932740Y-164084000D01*
G75*
G02*
X101346000Y-163497260I0J586740D01*
G01*
G37*
G36*
G01*
X98806000Y-163497260D02*
X98806000Y-162892740D01*
G75*
G02*
X99392740Y-162306000I586740J0D01*
G01*
X99997260Y-162306000D01*
G75*
G02*
X100584000Y-162892740I0J-586740D01*
G01*
X100584000Y-163497260D01*
G75*
G02*
X99997260Y-164084000I-586740J0D01*
G01*
X99392740Y-164084000D01*
G75*
G02*
X98806000Y-163497260I0J586740D01*
G01*
G37*
G36*
G01*
X96266000Y-163497260D02*
X96266000Y-162892740D01*
G75*
G02*
X96852740Y-162306000I586740J0D01*
G01*
X97457260Y-162306000D01*
G75*
G02*
X98044000Y-162892740I0J-586740D01*
G01*
X98044000Y-163497260D01*
G75*
G02*
X97457260Y-164084000I-586740J0D01*
G01*
X96852740Y-164084000D01*
G75*
G02*
X96266000Y-163497260I0J586740D01*
G01*
G37*
G36*
G01*
X93726000Y-163497260D02*
X93726000Y-162892740D01*
G75*
G02*
X94312740Y-162306000I586740J0D01*
G01*
X94917260Y-162306000D01*
G75*
G02*
X95504000Y-162892740I0J-586740D01*
G01*
X95504000Y-163497260D01*
G75*
G02*
X94917260Y-164084000I-586740J0D01*
G01*
X94312740Y-164084000D01*
G75*
G02*
X93726000Y-163497260I0J586740D01*
G01*
G37*
G36*
G01*
X91186000Y-163497260D02*
X91186000Y-162892740D01*
G75*
G02*
X91772740Y-162306000I586740J0D01*
G01*
X92377260Y-162306000D01*
G75*
G02*
X92964000Y-162892740I0J-586740D01*
G01*
X92964000Y-163497260D01*
G75*
G02*
X92377260Y-164084000I-586740J0D01*
G01*
X91772740Y-164084000D01*
G75*
G02*
X91186000Y-163497260I0J586740D01*
G01*
G37*
G36*
G01*
X88646000Y-163497260D02*
X88646000Y-162892740D01*
G75*
G02*
X89232740Y-162306000I586740J0D01*
G01*
X89837260Y-162306000D01*
G75*
G02*
X90424000Y-162892740I0J-586740D01*
G01*
X90424000Y-163497260D01*
G75*
G02*
X89837260Y-164084000I-586740J0D01*
G01*
X89232740Y-164084000D01*
G75*
G02*
X88646000Y-163497260I0J586740D01*
G01*
G37*
G36*
G01*
X86106000Y-163497260D02*
X86106000Y-162892740D01*
G75*
G02*
X86692740Y-162306000I586740J0D01*
G01*
X87297260Y-162306000D01*
G75*
G02*
X87884000Y-162892740I0J-586740D01*
G01*
X87884000Y-163497260D01*
G75*
G02*
X87297260Y-164084000I-586740J0D01*
G01*
X86692740Y-164084000D01*
G75*
G02*
X86106000Y-163497260I0J586740D01*
G01*
G37*
G36*
G01*
X83566000Y-163497260D02*
X83566000Y-162892740D01*
G75*
G02*
X84152740Y-162306000I586740J0D01*
G01*
X84757260Y-162306000D01*
G75*
G02*
X85344000Y-162892740I0J-586740D01*
G01*
X85344000Y-163497260D01*
G75*
G02*
X84757260Y-164084000I-586740J0D01*
G01*
X84152740Y-164084000D01*
G75*
G02*
X83566000Y-163497260I0J586740D01*
G01*
G37*
G36*
G01*
X81026000Y-163497260D02*
X81026000Y-162892740D01*
G75*
G02*
X81612740Y-162306000I586740J0D01*
G01*
X82217260Y-162306000D01*
G75*
G02*
X82804000Y-162892740I0J-586740D01*
G01*
X82804000Y-163497260D01*
G75*
G02*
X82217260Y-164084000I-586740J0D01*
G01*
X81612740Y-164084000D01*
G75*
G02*
X81026000Y-163497260I0J586740D01*
G01*
G37*
G36*
G01*
X78486000Y-163497260D02*
X78486000Y-162892740D01*
G75*
G02*
X79072740Y-162306000I586740J0D01*
G01*
X79677260Y-162306000D01*
G75*
G02*
X80264000Y-162892740I0J-586740D01*
G01*
X80264000Y-163497260D01*
G75*
G02*
X79677260Y-164084000I-586740J0D01*
G01*
X79072740Y-164084000D01*
G75*
G02*
X78486000Y-163497260I0J586740D01*
G01*
G37*
G36*
G01*
X75946000Y-163497260D02*
X75946000Y-162892740D01*
G75*
G02*
X76532740Y-162306000I586740J0D01*
G01*
X77137260Y-162306000D01*
G75*
G02*
X77724000Y-162892740I0J-586740D01*
G01*
X77724000Y-163497260D01*
G75*
G02*
X77137260Y-164084000I-586740J0D01*
G01*
X76532740Y-164084000D01*
G75*
G02*
X75946000Y-163497260I0J586740D01*
G01*
G37*
G36*
G01*
X73406000Y-163497260D02*
X73406000Y-162892740D01*
G75*
G02*
X73992740Y-162306000I586740J0D01*
G01*
X74597260Y-162306000D01*
G75*
G02*
X75184000Y-162892740I0J-586740D01*
G01*
X75184000Y-163497260D01*
G75*
G02*
X74597260Y-164084000I-586740J0D01*
G01*
X73992740Y-164084000D01*
G75*
G02*
X73406000Y-163497260I0J586740D01*
G01*
G37*
G36*
G01*
X70866000Y-163497260D02*
X70866000Y-162892740D01*
G75*
G02*
X71452740Y-162306000I586740J0D01*
G01*
X72057260Y-162306000D01*
G75*
G02*
X72644000Y-162892740I0J-586740D01*
G01*
X72644000Y-163497260D01*
G75*
G02*
X72057260Y-164084000I-586740J0D01*
G01*
X71452740Y-164084000D01*
G75*
G02*
X70866000Y-163497260I0J586740D01*
G01*
G37*
G36*
G01*
X68326000Y-163497260D02*
X68326000Y-162892740D01*
G75*
G02*
X68912740Y-162306000I586740J0D01*
G01*
X69517260Y-162306000D01*
G75*
G02*
X70104000Y-162892740I0J-586740D01*
G01*
X70104000Y-163497260D01*
G75*
G02*
X69517260Y-164084000I-586740J0D01*
G01*
X68912740Y-164084000D01*
G75*
G02*
X68326000Y-163497260I0J586740D01*
G01*
G37*
G36*
G01*
X65786000Y-163497260D02*
X65786000Y-162892740D01*
G75*
G02*
X66372740Y-162306000I586740J0D01*
G01*
X66977260Y-162306000D01*
G75*
G02*
X67564000Y-162892740I0J-586740D01*
G01*
X67564000Y-163497260D01*
G75*
G02*
X66977260Y-164084000I-586740J0D01*
G01*
X66372740Y-164084000D01*
G75*
G02*
X65786000Y-163497260I0J586740D01*
G01*
G37*
G36*
G01*
X63246000Y-163497260D02*
X63246000Y-162892740D01*
G75*
G02*
X63832740Y-162306000I586740J0D01*
G01*
X64437260Y-162306000D01*
G75*
G02*
X65024000Y-162892740I0J-586740D01*
G01*
X65024000Y-163497260D01*
G75*
G02*
X64437260Y-164084000I-586740J0D01*
G01*
X63832740Y-164084000D01*
G75*
G02*
X63246000Y-163497260I0J586740D01*
G01*
G37*
G36*
G01*
X60706000Y-163497260D02*
X60706000Y-162892740D01*
G75*
G02*
X61292740Y-162306000I586740J0D01*
G01*
X61897260Y-162306000D01*
G75*
G02*
X62484000Y-162892740I0J-586740D01*
G01*
X62484000Y-163497260D01*
G75*
G02*
X61897260Y-164084000I-586740J0D01*
G01*
X61292740Y-164084000D01*
G75*
G02*
X60706000Y-163497260I0J586740D01*
G01*
G37*
G36*
G01*
X58166000Y-163497260D02*
X58166000Y-162892740D01*
G75*
G02*
X58752740Y-162306000I586740J0D01*
G01*
X59357260Y-162306000D01*
G75*
G02*
X59944000Y-162892740I0J-586740D01*
G01*
X59944000Y-163497260D01*
G75*
G02*
X59357260Y-164084000I-586740J0D01*
G01*
X58752740Y-164084000D01*
G75*
G02*
X58166000Y-163497260I0J586740D01*
G01*
G37*
G36*
G01*
X50546000Y-163497260D02*
X50546000Y-162892740D01*
G75*
G02*
X51132740Y-162306000I586740J0D01*
G01*
X51737260Y-162306000D01*
G75*
G02*
X52324000Y-162892740I0J-586740D01*
G01*
X52324000Y-163497260D01*
G75*
G02*
X51737260Y-164084000I-586740J0D01*
G01*
X51132740Y-164084000D01*
G75*
G02*
X50546000Y-163497260I0J586740D01*
G01*
G37*
G36*
G01*
X53086000Y-163497260D02*
X53086000Y-162892740D01*
G75*
G02*
X53672740Y-162306000I586740J0D01*
G01*
X54277260Y-162306000D01*
G75*
G02*
X54864000Y-162892740I0J-586740D01*
G01*
X54864000Y-163497260D01*
G75*
G02*
X54277260Y-164084000I-586740J0D01*
G01*
X53672740Y-164084000D01*
G75*
G02*
X53086000Y-163497260I0J586740D01*
G01*
G37*
G36*
G01*
X45466000Y-163497260D02*
X45466000Y-162892740D01*
G75*
G02*
X46052740Y-162306000I586740J0D01*
G01*
X46657260Y-162306000D01*
G75*
G02*
X47244000Y-162892740I0J-586740D01*
G01*
X47244000Y-163497260D01*
G75*
G02*
X46657260Y-164084000I-586740J0D01*
G01*
X46052740Y-164084000D01*
G75*
G02*
X45466000Y-163497260I0J586740D01*
G01*
G37*
G36*
G01*
X48006000Y-163497260D02*
X48006000Y-162892740D01*
G75*
G02*
X48592740Y-162306000I586740J0D01*
G01*
X49197260Y-162306000D01*
G75*
G02*
X49784000Y-162892740I0J-586740D01*
G01*
X49784000Y-163497260D01*
G75*
G02*
X49197260Y-164084000I-586740J0D01*
G01*
X48592740Y-164084000D01*
G75*
G02*
X48006000Y-163497260I0J586740D01*
G01*
G37*
G36*
G01*
X55626000Y-163497260D02*
X55626000Y-162892740D01*
G75*
G02*
X56212740Y-162306000I586740J0D01*
G01*
X56817260Y-162306000D01*
G75*
G02*
X57404000Y-162892740I0J-586740D01*
G01*
X57404000Y-163497260D01*
G75*
G02*
X56817260Y-164084000I-586740J0D01*
G01*
X56212740Y-164084000D01*
G75*
G02*
X55626000Y-163497260I0J586740D01*
G01*
G37*
G36*
G01*
X45466000Y-166037260D02*
X45466000Y-165432740D01*
G75*
G02*
X46052740Y-164846000I586740J0D01*
G01*
X46657260Y-164846000D01*
G75*
G02*
X47244000Y-165432740I0J-586740D01*
G01*
X47244000Y-166037260D01*
G75*
G02*
X46657260Y-166624000I-586740J0D01*
G01*
X46052740Y-166624000D01*
G75*
G02*
X45466000Y-166037260I0J586740D01*
G01*
G37*
G36*
G01*
X48006000Y-166037260D02*
X48006000Y-165432740D01*
G75*
G02*
X48592740Y-164846000I586740J0D01*
G01*
X49197260Y-164846000D01*
G75*
G02*
X49784000Y-165432740I0J-586740D01*
G01*
X49784000Y-166037260D01*
G75*
G02*
X49197260Y-166624000I-586740J0D01*
G01*
X48592740Y-166624000D01*
G75*
G02*
X48006000Y-166037260I0J586740D01*
G01*
G37*
G36*
G01*
X50546000Y-166037260D02*
X50546000Y-165432740D01*
G75*
G02*
X51132740Y-164846000I586740J0D01*
G01*
X51737260Y-164846000D01*
G75*
G02*
X52324000Y-165432740I0J-586740D01*
G01*
X52324000Y-166037260D01*
G75*
G02*
X51737260Y-166624000I-586740J0D01*
G01*
X51132740Y-166624000D01*
G75*
G02*
X50546000Y-166037260I0J586740D01*
G01*
G37*
G36*
G01*
X68326000Y-166037260D02*
X68326000Y-165432740D01*
G75*
G02*
X68912740Y-164846000I586740J0D01*
G01*
X69517260Y-164846000D01*
G75*
G02*
X70104000Y-165432740I0J-586740D01*
G01*
X70104000Y-166037260D01*
G75*
G02*
X69517260Y-166624000I-586740J0D01*
G01*
X68912740Y-166624000D01*
G75*
G02*
X68326000Y-166037260I0J586740D01*
G01*
G37*
G36*
G01*
X63246000Y-166037260D02*
X63246000Y-165432740D01*
G75*
G02*
X63832740Y-164846000I586740J0D01*
G01*
X64437260Y-164846000D01*
G75*
G02*
X65024000Y-165432740I0J-586740D01*
G01*
X65024000Y-166037260D01*
G75*
G02*
X64437260Y-166624000I-586740J0D01*
G01*
X63832740Y-166624000D01*
G75*
G02*
X63246000Y-166037260I0J586740D01*
G01*
G37*
G36*
G01*
X60706000Y-166037260D02*
X60706000Y-165432740D01*
G75*
G02*
X61292740Y-164846000I586740J0D01*
G01*
X61897260Y-164846000D01*
G75*
G02*
X62484000Y-165432740I0J-586740D01*
G01*
X62484000Y-166037260D01*
G75*
G02*
X61897260Y-166624000I-586740J0D01*
G01*
X61292740Y-166624000D01*
G75*
G02*
X60706000Y-166037260I0J586740D01*
G01*
G37*
G36*
G01*
X53086000Y-166037260D02*
X53086000Y-165432740D01*
G75*
G02*
X53672740Y-164846000I586740J0D01*
G01*
X54277260Y-164846000D01*
G75*
G02*
X54864000Y-165432740I0J-586740D01*
G01*
X54864000Y-166037260D01*
G75*
G02*
X54277260Y-166624000I-586740J0D01*
G01*
X53672740Y-166624000D01*
G75*
G02*
X53086000Y-166037260I0J586740D01*
G01*
G37*
G36*
G01*
X55626000Y-166037260D02*
X55626000Y-165432740D01*
G75*
G02*
X56212740Y-164846000I586740J0D01*
G01*
X56817260Y-164846000D01*
G75*
G02*
X57404000Y-165432740I0J-586740D01*
G01*
X57404000Y-166037260D01*
G75*
G02*
X56817260Y-166624000I-586740J0D01*
G01*
X56212740Y-166624000D01*
G75*
G02*
X55626000Y-166037260I0J586740D01*
G01*
G37*
G36*
G01*
X58166000Y-166037260D02*
X58166000Y-165432740D01*
G75*
G02*
X58752740Y-164846000I586740J0D01*
G01*
X59357260Y-164846000D01*
G75*
G02*
X59944000Y-165432740I0J-586740D01*
G01*
X59944000Y-166037260D01*
G75*
G02*
X59357260Y-166624000I-586740J0D01*
G01*
X58752740Y-166624000D01*
G75*
G02*
X58166000Y-166037260I0J586740D01*
G01*
G37*
G36*
G01*
X114046000Y-166037260D02*
X114046000Y-165432740D01*
G75*
G02*
X114632740Y-164846000I586740J0D01*
G01*
X115237260Y-164846000D01*
G75*
G02*
X115824000Y-165432740I0J-586740D01*
G01*
X115824000Y-166037260D01*
G75*
G02*
X115237260Y-166624000I-586740J0D01*
G01*
X114632740Y-166624000D01*
G75*
G02*
X114046000Y-166037260I0J586740D01*
G01*
G37*
G36*
G01*
X111506000Y-166037260D02*
X111506000Y-165432740D01*
G75*
G02*
X112092740Y-164846000I586740J0D01*
G01*
X112697260Y-164846000D01*
G75*
G02*
X113284000Y-165432740I0J-586740D01*
G01*
X113284000Y-166037260D01*
G75*
G02*
X112697260Y-166624000I-586740J0D01*
G01*
X112092740Y-166624000D01*
G75*
G02*
X111506000Y-166037260I0J586740D01*
G01*
G37*
G36*
G01*
X108966000Y-166037260D02*
X108966000Y-165432740D01*
G75*
G02*
X109552740Y-164846000I586740J0D01*
G01*
X110157260Y-164846000D01*
G75*
G02*
X110744000Y-165432740I0J-586740D01*
G01*
X110744000Y-166037260D01*
G75*
G02*
X110157260Y-166624000I-586740J0D01*
G01*
X109552740Y-166624000D01*
G75*
G02*
X108966000Y-166037260I0J586740D01*
G01*
G37*
G36*
G01*
X106426000Y-166037260D02*
X106426000Y-165432740D01*
G75*
G02*
X107012740Y-164846000I586740J0D01*
G01*
X107617260Y-164846000D01*
G75*
G02*
X108204000Y-165432740I0J-586740D01*
G01*
X108204000Y-166037260D01*
G75*
G02*
X107617260Y-166624000I-586740J0D01*
G01*
X107012740Y-166624000D01*
G75*
G02*
X106426000Y-166037260I0J586740D01*
G01*
G37*
G36*
G01*
X101346000Y-166037260D02*
X101346000Y-165432740D01*
G75*
G02*
X101932740Y-164846000I586740J0D01*
G01*
X102537260Y-164846000D01*
G75*
G02*
X103124000Y-165432740I0J-586740D01*
G01*
X103124000Y-166037260D01*
G75*
G02*
X102537260Y-166624000I-586740J0D01*
G01*
X101932740Y-166624000D01*
G75*
G02*
X101346000Y-166037260I0J586740D01*
G01*
G37*
G36*
G01*
X98806000Y-166037260D02*
X98806000Y-165432740D01*
G75*
G02*
X99392740Y-164846000I586740J0D01*
G01*
X99997260Y-164846000D01*
G75*
G02*
X100584000Y-165432740I0J-586740D01*
G01*
X100584000Y-166037260D01*
G75*
G02*
X99997260Y-166624000I-586740J0D01*
G01*
X99392740Y-166624000D01*
G75*
G02*
X98806000Y-166037260I0J586740D01*
G01*
G37*
G36*
G01*
X96266000Y-166037260D02*
X96266000Y-165432740D01*
G75*
G02*
X96852740Y-164846000I586740J0D01*
G01*
X97457260Y-164846000D01*
G75*
G02*
X98044000Y-165432740I0J-586740D01*
G01*
X98044000Y-166037260D01*
G75*
G02*
X97457260Y-166624000I-586740J0D01*
G01*
X96852740Y-166624000D01*
G75*
G02*
X96266000Y-166037260I0J586740D01*
G01*
G37*
G36*
G01*
X93726000Y-166037260D02*
X93726000Y-165432740D01*
G75*
G02*
X94312740Y-164846000I586740J0D01*
G01*
X94917260Y-164846000D01*
G75*
G02*
X95504000Y-165432740I0J-586740D01*
G01*
X95504000Y-166037260D01*
G75*
G02*
X94917260Y-166624000I-586740J0D01*
G01*
X94312740Y-166624000D01*
G75*
G02*
X93726000Y-166037260I0J586740D01*
G01*
G37*
G36*
G01*
X91186000Y-166037260D02*
X91186000Y-165432740D01*
G75*
G02*
X91772740Y-164846000I586740J0D01*
G01*
X92377260Y-164846000D01*
G75*
G02*
X92964000Y-165432740I0J-586740D01*
G01*
X92964000Y-166037260D01*
G75*
G02*
X92377260Y-166624000I-586740J0D01*
G01*
X91772740Y-166624000D01*
G75*
G02*
X91186000Y-166037260I0J586740D01*
G01*
G37*
G36*
G01*
X88646000Y-166037260D02*
X88646000Y-165432740D01*
G75*
G02*
X89232740Y-164846000I586740J0D01*
G01*
X89837260Y-164846000D01*
G75*
G02*
X90424000Y-165432740I0J-586740D01*
G01*
X90424000Y-166037260D01*
G75*
G02*
X89837260Y-166624000I-586740J0D01*
G01*
X89232740Y-166624000D01*
G75*
G02*
X88646000Y-166037260I0J586740D01*
G01*
G37*
G36*
G01*
X86106000Y-166037260D02*
X86106000Y-165432740D01*
G75*
G02*
X86692740Y-164846000I586740J0D01*
G01*
X87297260Y-164846000D01*
G75*
G02*
X87884000Y-165432740I0J-586740D01*
G01*
X87884000Y-166037260D01*
G75*
G02*
X87297260Y-166624000I-586740J0D01*
G01*
X86692740Y-166624000D01*
G75*
G02*
X86106000Y-166037260I0J586740D01*
G01*
G37*
G36*
G01*
X83566000Y-166037260D02*
X83566000Y-165432740D01*
G75*
G02*
X84152740Y-164846000I586740J0D01*
G01*
X84757260Y-164846000D01*
G75*
G02*
X85344000Y-165432740I0J-586740D01*
G01*
X85344000Y-166037260D01*
G75*
G02*
X84757260Y-166624000I-586740J0D01*
G01*
X84152740Y-166624000D01*
G75*
G02*
X83566000Y-166037260I0J586740D01*
G01*
G37*
G36*
G01*
X81026000Y-166037260D02*
X81026000Y-165432740D01*
G75*
G02*
X81612740Y-164846000I586740J0D01*
G01*
X82217260Y-164846000D01*
G75*
G02*
X82804000Y-165432740I0J-586740D01*
G01*
X82804000Y-166037260D01*
G75*
G02*
X82217260Y-166624000I-586740J0D01*
G01*
X81612740Y-166624000D01*
G75*
G02*
X81026000Y-166037260I0J586740D01*
G01*
G37*
G36*
G01*
X78486000Y-166037260D02*
X78486000Y-165432740D01*
G75*
G02*
X79072740Y-164846000I586740J0D01*
G01*
X79677260Y-164846000D01*
G75*
G02*
X80264000Y-165432740I0J-586740D01*
G01*
X80264000Y-166037260D01*
G75*
G02*
X79677260Y-166624000I-586740J0D01*
G01*
X79072740Y-166624000D01*
G75*
G02*
X78486000Y-166037260I0J586740D01*
G01*
G37*
G36*
G01*
X75946000Y-166037260D02*
X75946000Y-165432740D01*
G75*
G02*
X76532740Y-164846000I586740J0D01*
G01*
X77137260Y-164846000D01*
G75*
G02*
X77724000Y-165432740I0J-586740D01*
G01*
X77724000Y-166037260D01*
G75*
G02*
X77137260Y-166624000I-586740J0D01*
G01*
X76532740Y-166624000D01*
G75*
G02*
X75946000Y-166037260I0J586740D01*
G01*
G37*
G36*
G01*
X73406000Y-166037260D02*
X73406000Y-165432740D01*
G75*
G02*
X73992740Y-164846000I586740J0D01*
G01*
X74597260Y-164846000D01*
G75*
G02*
X75184000Y-165432740I0J-586740D01*
G01*
X75184000Y-166037260D01*
G75*
G02*
X74597260Y-166624000I-586740J0D01*
G01*
X73992740Y-166624000D01*
G75*
G02*
X73406000Y-166037260I0J586740D01*
G01*
G37*
G36*
G01*
X70866000Y-166037260D02*
X70866000Y-165432740D01*
G75*
G02*
X71452740Y-164846000I586740J0D01*
G01*
X72057260Y-164846000D01*
G75*
G02*
X72644000Y-165432740I0J-586740D01*
G01*
X72644000Y-166037260D01*
G75*
G02*
X72057260Y-166624000I-586740J0D01*
G01*
X71452740Y-166624000D01*
G75*
G02*
X70866000Y-166037260I0J586740D01*
G01*
G37*
G36*
G01*
X65786000Y-166037260D02*
X65786000Y-165432740D01*
G75*
G02*
X66372740Y-164846000I586740J0D01*
G01*
X66977260Y-164846000D01*
G75*
G02*
X67564000Y-165432740I0J-586740D01*
G01*
X67564000Y-166037260D01*
G75*
G02*
X66977260Y-166624000I-586740J0D01*
G01*
X66372740Y-166624000D01*
G75*
G02*
X65786000Y-166037260I0J586740D01*
G01*
G37*
G36*
G01*
X114046000Y-162227260D02*
X114046000Y-161622740D01*
G75*
G02*
X114632740Y-161036000I586740J0D01*
G01*
X115237260Y-161036000D01*
G75*
G02*
X115824000Y-161622740I0J-586740D01*
G01*
X115824000Y-162227260D01*
G75*
G02*
X115237260Y-162814000I-586740J0D01*
G01*
X114632740Y-162814000D01*
G75*
G02*
X114046000Y-162227260I0J586740D01*
G01*
G37*
G36*
G01*
X111506000Y-162227260D02*
X111506000Y-161622740D01*
G75*
G02*
X112092740Y-161036000I586740J0D01*
G01*
X112697260Y-161036000D01*
G75*
G02*
X113284000Y-161622740I0J-586740D01*
G01*
X113284000Y-162227260D01*
G75*
G02*
X112697260Y-162814000I-586740J0D01*
G01*
X112092740Y-162814000D01*
G75*
G02*
X111506000Y-162227260I0J586740D01*
G01*
G37*
G36*
G01*
X108966000Y-162227260D02*
X108966000Y-161622740D01*
G75*
G02*
X109552740Y-161036000I586740J0D01*
G01*
X110157260Y-161036000D01*
G75*
G02*
X110744000Y-161622740I0J-586740D01*
G01*
X110744000Y-162227260D01*
G75*
G02*
X110157260Y-162814000I-586740J0D01*
G01*
X109552740Y-162814000D01*
G75*
G02*
X108966000Y-162227260I0J586740D01*
G01*
G37*
G36*
G01*
X106426000Y-162227260D02*
X106426000Y-161622740D01*
G75*
G02*
X107012740Y-161036000I586740J0D01*
G01*
X107617260Y-161036000D01*
G75*
G02*
X108204000Y-161622740I0J-586740D01*
G01*
X108204000Y-162227260D01*
G75*
G02*
X107617260Y-162814000I-586740J0D01*
G01*
X107012740Y-162814000D01*
G75*
G02*
X106426000Y-162227260I0J586740D01*
G01*
G37*
G36*
G01*
X101346000Y-162227260D02*
X101346000Y-161622740D01*
G75*
G02*
X101932740Y-161036000I586740J0D01*
G01*
X102537260Y-161036000D01*
G75*
G02*
X103124000Y-161622740I0J-586740D01*
G01*
X103124000Y-162227260D01*
G75*
G02*
X102537260Y-162814000I-586740J0D01*
G01*
X101932740Y-162814000D01*
G75*
G02*
X101346000Y-162227260I0J586740D01*
G01*
G37*
G36*
G01*
X98806000Y-162227260D02*
X98806000Y-161622740D01*
G75*
G02*
X99392740Y-161036000I586740J0D01*
G01*
X99997260Y-161036000D01*
G75*
G02*
X100584000Y-161622740I0J-586740D01*
G01*
X100584000Y-162227260D01*
G75*
G02*
X99997260Y-162814000I-586740J0D01*
G01*
X99392740Y-162814000D01*
G75*
G02*
X98806000Y-162227260I0J586740D01*
G01*
G37*
G36*
G01*
X96266000Y-162227260D02*
X96266000Y-161622740D01*
G75*
G02*
X96852740Y-161036000I586740J0D01*
G01*
X97457260Y-161036000D01*
G75*
G02*
X98044000Y-161622740I0J-586740D01*
G01*
X98044000Y-162227260D01*
G75*
G02*
X97457260Y-162814000I-586740J0D01*
G01*
X96852740Y-162814000D01*
G75*
G02*
X96266000Y-162227260I0J586740D01*
G01*
G37*
G36*
G01*
X93726000Y-162227260D02*
X93726000Y-161622740D01*
G75*
G02*
X94312740Y-161036000I586740J0D01*
G01*
X94917260Y-161036000D01*
G75*
G02*
X95504000Y-161622740I0J-586740D01*
G01*
X95504000Y-162227260D01*
G75*
G02*
X94917260Y-162814000I-586740J0D01*
G01*
X94312740Y-162814000D01*
G75*
G02*
X93726000Y-162227260I0J586740D01*
G01*
G37*
G36*
G01*
X91186000Y-162227260D02*
X91186000Y-161622740D01*
G75*
G02*
X91772740Y-161036000I586740J0D01*
G01*
X92377260Y-161036000D01*
G75*
G02*
X92964000Y-161622740I0J-586740D01*
G01*
X92964000Y-162227260D01*
G75*
G02*
X92377260Y-162814000I-586740J0D01*
G01*
X91772740Y-162814000D01*
G75*
G02*
X91186000Y-162227260I0J586740D01*
G01*
G37*
G36*
G01*
X88646000Y-162227260D02*
X88646000Y-161622740D01*
G75*
G02*
X89232740Y-161036000I586740J0D01*
G01*
X89837260Y-161036000D01*
G75*
G02*
X90424000Y-161622740I0J-586740D01*
G01*
X90424000Y-162227260D01*
G75*
G02*
X89837260Y-162814000I-586740J0D01*
G01*
X89232740Y-162814000D01*
G75*
G02*
X88646000Y-162227260I0J586740D01*
G01*
G37*
G36*
G01*
X86106000Y-162227260D02*
X86106000Y-161622740D01*
G75*
G02*
X86692740Y-161036000I586740J0D01*
G01*
X87297260Y-161036000D01*
G75*
G02*
X87884000Y-161622740I0J-586740D01*
G01*
X87884000Y-162227260D01*
G75*
G02*
X87297260Y-162814000I-586740J0D01*
G01*
X86692740Y-162814000D01*
G75*
G02*
X86106000Y-162227260I0J586740D01*
G01*
G37*
G36*
G01*
X83566000Y-162227260D02*
X83566000Y-161622740D01*
G75*
G02*
X84152740Y-161036000I586740J0D01*
G01*
X84757260Y-161036000D01*
G75*
G02*
X85344000Y-161622740I0J-586740D01*
G01*
X85344000Y-162227260D01*
G75*
G02*
X84757260Y-162814000I-586740J0D01*
G01*
X84152740Y-162814000D01*
G75*
G02*
X83566000Y-162227260I0J586740D01*
G01*
G37*
G36*
G01*
X81026000Y-162227260D02*
X81026000Y-161622740D01*
G75*
G02*
X81612740Y-161036000I586740J0D01*
G01*
X82217260Y-161036000D01*
G75*
G02*
X82804000Y-161622740I0J-586740D01*
G01*
X82804000Y-162227260D01*
G75*
G02*
X82217260Y-162814000I-586740J0D01*
G01*
X81612740Y-162814000D01*
G75*
G02*
X81026000Y-162227260I0J586740D01*
G01*
G37*
G36*
G01*
X78486000Y-162227260D02*
X78486000Y-161622740D01*
G75*
G02*
X79072740Y-161036000I586740J0D01*
G01*
X79677260Y-161036000D01*
G75*
G02*
X80264000Y-161622740I0J-586740D01*
G01*
X80264000Y-162227260D01*
G75*
G02*
X79677260Y-162814000I-586740J0D01*
G01*
X79072740Y-162814000D01*
G75*
G02*
X78486000Y-162227260I0J586740D01*
G01*
G37*
G36*
G01*
X75946000Y-162227260D02*
X75946000Y-161622740D01*
G75*
G02*
X76532740Y-161036000I586740J0D01*
G01*
X77137260Y-161036000D01*
G75*
G02*
X77724000Y-161622740I0J-586740D01*
G01*
X77724000Y-162227260D01*
G75*
G02*
X77137260Y-162814000I-586740J0D01*
G01*
X76532740Y-162814000D01*
G75*
G02*
X75946000Y-162227260I0J586740D01*
G01*
G37*
G36*
G01*
X73406000Y-162227260D02*
X73406000Y-161622740D01*
G75*
G02*
X73992740Y-161036000I586740J0D01*
G01*
X74597260Y-161036000D01*
G75*
G02*
X75184000Y-161622740I0J-586740D01*
G01*
X75184000Y-162227260D01*
G75*
G02*
X74597260Y-162814000I-586740J0D01*
G01*
X73992740Y-162814000D01*
G75*
G02*
X73406000Y-162227260I0J586740D01*
G01*
G37*
G36*
G01*
X70866000Y-162227260D02*
X70866000Y-161622740D01*
G75*
G02*
X71452740Y-161036000I586740J0D01*
G01*
X72057260Y-161036000D01*
G75*
G02*
X72644000Y-161622740I0J-586740D01*
G01*
X72644000Y-162227260D01*
G75*
G02*
X72057260Y-162814000I-586740J0D01*
G01*
X71452740Y-162814000D01*
G75*
G02*
X70866000Y-162227260I0J586740D01*
G01*
G37*
G36*
G01*
X114046000Y-167307260D02*
X114046000Y-166702740D01*
G75*
G02*
X114632740Y-166116000I586740J0D01*
G01*
X115237260Y-166116000D01*
G75*
G02*
X115824000Y-166702740I0J-586740D01*
G01*
X115824000Y-167307260D01*
G75*
G02*
X115237260Y-167894000I-586740J0D01*
G01*
X114632740Y-167894000D01*
G75*
G02*
X114046000Y-167307260I0J586740D01*
G01*
G37*
G36*
G01*
X111506000Y-167307260D02*
X111506000Y-166702740D01*
G75*
G02*
X112092740Y-166116000I586740J0D01*
G01*
X112697260Y-166116000D01*
G75*
G02*
X113284000Y-166702740I0J-586740D01*
G01*
X113284000Y-167307260D01*
G75*
G02*
X112697260Y-167894000I-586740J0D01*
G01*
X112092740Y-167894000D01*
G75*
G02*
X111506000Y-167307260I0J586740D01*
G01*
G37*
G36*
G01*
X108966000Y-167307260D02*
X108966000Y-166702740D01*
G75*
G02*
X109552740Y-166116000I586740J0D01*
G01*
X110157260Y-166116000D01*
G75*
G02*
X110744000Y-166702740I0J-586740D01*
G01*
X110744000Y-167307260D01*
G75*
G02*
X110157260Y-167894000I-586740J0D01*
G01*
X109552740Y-167894000D01*
G75*
G02*
X108966000Y-167307260I0J586740D01*
G01*
G37*
G36*
G01*
X106426000Y-167307260D02*
X106426000Y-166702740D01*
G75*
G02*
X107012740Y-166116000I586740J0D01*
G01*
X107617260Y-166116000D01*
G75*
G02*
X108204000Y-166702740I0J-586740D01*
G01*
X108204000Y-167307260D01*
G75*
G02*
X107617260Y-167894000I-586740J0D01*
G01*
X107012740Y-167894000D01*
G75*
G02*
X106426000Y-167307260I0J586740D01*
G01*
G37*
G36*
G01*
X101346000Y-167307260D02*
X101346000Y-166702740D01*
G75*
G02*
X101932740Y-166116000I586740J0D01*
G01*
X102537260Y-166116000D01*
G75*
G02*
X103124000Y-166702740I0J-586740D01*
G01*
X103124000Y-167307260D01*
G75*
G02*
X102537260Y-167894000I-586740J0D01*
G01*
X101932740Y-167894000D01*
G75*
G02*
X101346000Y-167307260I0J586740D01*
G01*
G37*
G36*
G01*
X98806000Y-167307260D02*
X98806000Y-166702740D01*
G75*
G02*
X99392740Y-166116000I586740J0D01*
G01*
X99997260Y-166116000D01*
G75*
G02*
X100584000Y-166702740I0J-586740D01*
G01*
X100584000Y-167307260D01*
G75*
G02*
X99997260Y-167894000I-586740J0D01*
G01*
X99392740Y-167894000D01*
G75*
G02*
X98806000Y-167307260I0J586740D01*
G01*
G37*
G36*
G01*
X96266000Y-167307260D02*
X96266000Y-166702740D01*
G75*
G02*
X96852740Y-166116000I586740J0D01*
G01*
X97457260Y-166116000D01*
G75*
G02*
X98044000Y-166702740I0J-586740D01*
G01*
X98044000Y-167307260D01*
G75*
G02*
X97457260Y-167894000I-586740J0D01*
G01*
X96852740Y-167894000D01*
G75*
G02*
X96266000Y-167307260I0J586740D01*
G01*
G37*
G36*
G01*
X93726000Y-167307260D02*
X93726000Y-166702740D01*
G75*
G02*
X94312740Y-166116000I586740J0D01*
G01*
X94917260Y-166116000D01*
G75*
G02*
X95504000Y-166702740I0J-586740D01*
G01*
X95504000Y-167307260D01*
G75*
G02*
X94917260Y-167894000I-586740J0D01*
G01*
X94312740Y-167894000D01*
G75*
G02*
X93726000Y-167307260I0J586740D01*
G01*
G37*
G36*
G01*
X91186000Y-167307260D02*
X91186000Y-166702740D01*
G75*
G02*
X91772740Y-166116000I586740J0D01*
G01*
X92377260Y-166116000D01*
G75*
G02*
X92964000Y-166702740I0J-586740D01*
G01*
X92964000Y-167307260D01*
G75*
G02*
X92377260Y-167894000I-586740J0D01*
G01*
X91772740Y-167894000D01*
G75*
G02*
X91186000Y-167307260I0J586740D01*
G01*
G37*
G36*
G01*
X88646000Y-167307260D02*
X88646000Y-166702740D01*
G75*
G02*
X89232740Y-166116000I586740J0D01*
G01*
X89837260Y-166116000D01*
G75*
G02*
X90424000Y-166702740I0J-586740D01*
G01*
X90424000Y-167307260D01*
G75*
G02*
X89837260Y-167894000I-586740J0D01*
G01*
X89232740Y-167894000D01*
G75*
G02*
X88646000Y-167307260I0J586740D01*
G01*
G37*
G36*
G01*
X86106000Y-167307260D02*
X86106000Y-166702740D01*
G75*
G02*
X86692740Y-166116000I586740J0D01*
G01*
X87297260Y-166116000D01*
G75*
G02*
X87884000Y-166702740I0J-586740D01*
G01*
X87884000Y-167307260D01*
G75*
G02*
X87297260Y-167894000I-586740J0D01*
G01*
X86692740Y-167894000D01*
G75*
G02*
X86106000Y-167307260I0J586740D01*
G01*
G37*
G36*
G01*
X83566000Y-167307260D02*
X83566000Y-166702740D01*
G75*
G02*
X84152740Y-166116000I586740J0D01*
G01*
X84757260Y-166116000D01*
G75*
G02*
X85344000Y-166702740I0J-586740D01*
G01*
X85344000Y-167307260D01*
G75*
G02*
X84757260Y-167894000I-586740J0D01*
G01*
X84152740Y-167894000D01*
G75*
G02*
X83566000Y-167307260I0J586740D01*
G01*
G37*
G36*
G01*
X81026000Y-167307260D02*
X81026000Y-166702740D01*
G75*
G02*
X81612740Y-166116000I586740J0D01*
G01*
X82217260Y-166116000D01*
G75*
G02*
X82804000Y-166702740I0J-586740D01*
G01*
X82804000Y-167307260D01*
G75*
G02*
X82217260Y-167894000I-586740J0D01*
G01*
X81612740Y-167894000D01*
G75*
G02*
X81026000Y-167307260I0J586740D01*
G01*
G37*
G36*
G01*
X78486000Y-167307260D02*
X78486000Y-166702740D01*
G75*
G02*
X79072740Y-166116000I586740J0D01*
G01*
X79677260Y-166116000D01*
G75*
G02*
X80264000Y-166702740I0J-586740D01*
G01*
X80264000Y-167307260D01*
G75*
G02*
X79677260Y-167894000I-586740J0D01*
G01*
X79072740Y-167894000D01*
G75*
G02*
X78486000Y-167307260I0J586740D01*
G01*
G37*
G36*
G01*
X75946000Y-167307260D02*
X75946000Y-166702740D01*
G75*
G02*
X76532740Y-166116000I586740J0D01*
G01*
X77137260Y-166116000D01*
G75*
G02*
X77724000Y-166702740I0J-586740D01*
G01*
X77724000Y-167307260D01*
G75*
G02*
X77137260Y-167894000I-586740J0D01*
G01*
X76532740Y-167894000D01*
G75*
G02*
X75946000Y-167307260I0J586740D01*
G01*
G37*
G36*
G01*
X73406000Y-167307260D02*
X73406000Y-166702740D01*
G75*
G02*
X73992740Y-166116000I586740J0D01*
G01*
X74597260Y-166116000D01*
G75*
G02*
X75184000Y-166702740I0J-586740D01*
G01*
X75184000Y-167307260D01*
G75*
G02*
X74597260Y-167894000I-586740J0D01*
G01*
X73992740Y-167894000D01*
G75*
G02*
X73406000Y-167307260I0J586740D01*
G01*
G37*
G36*
G01*
X70866000Y-167307260D02*
X70866000Y-166702740D01*
G75*
G02*
X71452740Y-166116000I586740J0D01*
G01*
X72057260Y-166116000D01*
G75*
G02*
X72644000Y-166702740I0J-586740D01*
G01*
X72644000Y-167307260D01*
G75*
G02*
X72057260Y-167894000I-586740J0D01*
G01*
X71452740Y-167894000D01*
G75*
G02*
X70866000Y-167307260I0J586740D01*
G01*
G37*
G36*
G01*
X68326000Y-162227260D02*
X68326000Y-161622740D01*
G75*
G02*
X68912740Y-161036000I586740J0D01*
G01*
X69517260Y-161036000D01*
G75*
G02*
X70104000Y-161622740I0J-586740D01*
G01*
X70104000Y-162227260D01*
G75*
G02*
X69517260Y-162814000I-586740J0D01*
G01*
X68912740Y-162814000D01*
G75*
G02*
X68326000Y-162227260I0J586740D01*
G01*
G37*
G36*
G01*
X65786000Y-162227260D02*
X65786000Y-161622740D01*
G75*
G02*
X66372740Y-161036000I586740J0D01*
G01*
X66977260Y-161036000D01*
G75*
G02*
X67564000Y-161622740I0J-586740D01*
G01*
X67564000Y-162227260D01*
G75*
G02*
X66977260Y-162814000I-586740J0D01*
G01*
X66372740Y-162814000D01*
G75*
G02*
X65786000Y-162227260I0J586740D01*
G01*
G37*
G36*
G01*
X63246000Y-162227260D02*
X63246000Y-161622740D01*
G75*
G02*
X63832740Y-161036000I586740J0D01*
G01*
X64437260Y-161036000D01*
G75*
G02*
X65024000Y-161622740I0J-586740D01*
G01*
X65024000Y-162227260D01*
G75*
G02*
X64437260Y-162814000I-586740J0D01*
G01*
X63832740Y-162814000D01*
G75*
G02*
X63246000Y-162227260I0J586740D01*
G01*
G37*
G36*
G01*
X60706000Y-162227260D02*
X60706000Y-161622740D01*
G75*
G02*
X61292740Y-161036000I586740J0D01*
G01*
X61897260Y-161036000D01*
G75*
G02*
X62484000Y-161622740I0J-586740D01*
G01*
X62484000Y-162227260D01*
G75*
G02*
X61897260Y-162814000I-586740J0D01*
G01*
X61292740Y-162814000D01*
G75*
G02*
X60706000Y-162227260I0J586740D01*
G01*
G37*
G36*
G01*
X58166000Y-162227260D02*
X58166000Y-161622740D01*
G75*
G02*
X58752740Y-161036000I586740J0D01*
G01*
X59357260Y-161036000D01*
G75*
G02*
X59944000Y-161622740I0J-586740D01*
G01*
X59944000Y-162227260D01*
G75*
G02*
X59357260Y-162814000I-586740J0D01*
G01*
X58752740Y-162814000D01*
G75*
G02*
X58166000Y-162227260I0J586740D01*
G01*
G37*
G36*
G01*
X55626000Y-162227260D02*
X55626000Y-161622740D01*
G75*
G02*
X56212740Y-161036000I586740J0D01*
G01*
X56817260Y-161036000D01*
G75*
G02*
X57404000Y-161622740I0J-586740D01*
G01*
X57404000Y-162227260D01*
G75*
G02*
X56817260Y-162814000I-586740J0D01*
G01*
X56212740Y-162814000D01*
G75*
G02*
X55626000Y-162227260I0J586740D01*
G01*
G37*
G36*
G01*
X53086000Y-162227260D02*
X53086000Y-161622740D01*
G75*
G02*
X53672740Y-161036000I586740J0D01*
G01*
X54277260Y-161036000D01*
G75*
G02*
X54864000Y-161622740I0J-586740D01*
G01*
X54864000Y-162227260D01*
G75*
G02*
X54277260Y-162814000I-586740J0D01*
G01*
X53672740Y-162814000D01*
G75*
G02*
X53086000Y-162227260I0J586740D01*
G01*
G37*
G36*
G01*
X50546000Y-162227260D02*
X50546000Y-161622740D01*
G75*
G02*
X51132740Y-161036000I586740J0D01*
G01*
X51737260Y-161036000D01*
G75*
G02*
X52324000Y-161622740I0J-586740D01*
G01*
X52324000Y-162227260D01*
G75*
G02*
X51737260Y-162814000I-586740J0D01*
G01*
X51132740Y-162814000D01*
G75*
G02*
X50546000Y-162227260I0J586740D01*
G01*
G37*
G36*
G01*
X48006000Y-162227260D02*
X48006000Y-161622740D01*
G75*
G02*
X48592740Y-161036000I586740J0D01*
G01*
X49197260Y-161036000D01*
G75*
G02*
X49784000Y-161622740I0J-586740D01*
G01*
X49784000Y-162227260D01*
G75*
G02*
X49197260Y-162814000I-586740J0D01*
G01*
X48592740Y-162814000D01*
G75*
G02*
X48006000Y-162227260I0J586740D01*
G01*
G37*
G36*
G01*
X45466000Y-162227260D02*
X45466000Y-161622740D01*
G75*
G02*
X46052740Y-161036000I586740J0D01*
G01*
X46657260Y-161036000D01*
G75*
G02*
X47244000Y-161622740I0J-586740D01*
G01*
X47244000Y-162227260D01*
G75*
G02*
X46657260Y-162814000I-586740J0D01*
G01*
X46052740Y-162814000D01*
G75*
G02*
X45466000Y-162227260I0J586740D01*
G01*
G37*
G36*
G01*
X68326000Y-167307260D02*
X68326000Y-166702740D01*
G75*
G02*
X68912740Y-166116000I586740J0D01*
G01*
X69517260Y-166116000D01*
G75*
G02*
X70104000Y-166702740I0J-586740D01*
G01*
X70104000Y-167307260D01*
G75*
G02*
X69517260Y-167894000I-586740J0D01*
G01*
X68912740Y-167894000D01*
G75*
G02*
X68326000Y-167307260I0J586740D01*
G01*
G37*
G36*
G01*
X65786000Y-167307260D02*
X65786000Y-166702740D01*
G75*
G02*
X66372740Y-166116000I586740J0D01*
G01*
X66977260Y-166116000D01*
G75*
G02*
X67564000Y-166702740I0J-586740D01*
G01*
X67564000Y-167307260D01*
G75*
G02*
X66977260Y-167894000I-586740J0D01*
G01*
X66372740Y-167894000D01*
G75*
G02*
X65786000Y-167307260I0J586740D01*
G01*
G37*
G36*
G01*
X63246000Y-167307260D02*
X63246000Y-166702740D01*
G75*
G02*
X63832740Y-166116000I586740J0D01*
G01*
X64437260Y-166116000D01*
G75*
G02*
X65024000Y-166702740I0J-586740D01*
G01*
X65024000Y-167307260D01*
G75*
G02*
X64437260Y-167894000I-586740J0D01*
G01*
X63832740Y-167894000D01*
G75*
G02*
X63246000Y-167307260I0J586740D01*
G01*
G37*
G36*
G01*
X60706000Y-167307260D02*
X60706000Y-166702740D01*
G75*
G02*
X61292740Y-166116000I586740J0D01*
G01*
X61897260Y-166116000D01*
G75*
G02*
X62484000Y-166702740I0J-586740D01*
G01*
X62484000Y-167307260D01*
G75*
G02*
X61897260Y-167894000I-586740J0D01*
G01*
X61292740Y-167894000D01*
G75*
G02*
X60706000Y-167307260I0J586740D01*
G01*
G37*
G36*
G01*
X58166000Y-167307260D02*
X58166000Y-166702740D01*
G75*
G02*
X58752740Y-166116000I586740J0D01*
G01*
X59357260Y-166116000D01*
G75*
G02*
X59944000Y-166702740I0J-586740D01*
G01*
X59944000Y-167307260D01*
G75*
G02*
X59357260Y-167894000I-586740J0D01*
G01*
X58752740Y-167894000D01*
G75*
G02*
X58166000Y-167307260I0J586740D01*
G01*
G37*
G36*
G01*
X55626000Y-167307260D02*
X55626000Y-166702740D01*
G75*
G02*
X56212740Y-166116000I586740J0D01*
G01*
X56817260Y-166116000D01*
G75*
G02*
X57404000Y-166702740I0J-586740D01*
G01*
X57404000Y-167307260D01*
G75*
G02*
X56817260Y-167894000I-586740J0D01*
G01*
X56212740Y-167894000D01*
G75*
G02*
X55626000Y-167307260I0J586740D01*
G01*
G37*
G36*
G01*
X53086000Y-167307260D02*
X53086000Y-166702740D01*
G75*
G02*
X53672740Y-166116000I586740J0D01*
G01*
X54277260Y-166116000D01*
G75*
G02*
X54864000Y-166702740I0J-586740D01*
G01*
X54864000Y-167307260D01*
G75*
G02*
X54277260Y-167894000I-586740J0D01*
G01*
X53672740Y-167894000D01*
G75*
G02*
X53086000Y-167307260I0J586740D01*
G01*
G37*
G36*
G01*
X50546000Y-167307260D02*
X50546000Y-166702740D01*
G75*
G02*
X51132740Y-166116000I586740J0D01*
G01*
X51737260Y-166116000D01*
G75*
G02*
X52324000Y-166702740I0J-586740D01*
G01*
X52324000Y-167307260D01*
G75*
G02*
X51737260Y-167894000I-586740J0D01*
G01*
X51132740Y-167894000D01*
G75*
G02*
X50546000Y-167307260I0J586740D01*
G01*
G37*
G36*
G01*
X48006000Y-167307260D02*
X48006000Y-166702740D01*
G75*
G02*
X48592740Y-166116000I586740J0D01*
G01*
X49197260Y-166116000D01*
G75*
G02*
X49784000Y-166702740I0J-586740D01*
G01*
X49784000Y-167307260D01*
G75*
G02*
X49197260Y-167894000I-586740J0D01*
G01*
X48592740Y-167894000D01*
G75*
G02*
X48006000Y-167307260I0J586740D01*
G01*
G37*
G36*
G01*
X45466000Y-167307260D02*
X45466000Y-166702740D01*
G75*
G02*
X46052740Y-166116000I586740J0D01*
G01*
X46657260Y-166116000D01*
G75*
G02*
X47244000Y-166702740I0J-586740D01*
G01*
X47244000Y-167307260D01*
G75*
G02*
X46657260Y-167894000I-586740J0D01*
G01*
X46052740Y-167894000D01*
G75*
G02*
X45466000Y-167307260I0J586740D01*
G01*
G37*
D11*
X73660000Y-65485000D03*
X73660000Y-70485000D03*
D12*
X64770000Y-131445000D03*
X46990000Y-123825000D03*
X62230000Y-131445000D03*
X49530000Y-123825000D03*
X59690000Y-131445000D03*
X52070000Y-123825000D03*
X57150000Y-131445000D03*
X54610000Y-123825000D03*
X54610000Y-131445000D03*
X57150000Y-123825000D03*
X52070000Y-131445000D03*
X59690000Y-123825000D03*
X49530000Y-131445000D03*
X62230000Y-123825000D03*
X46990000Y-131445000D03*
D13*
X64770000Y-123825000D03*
D11*
X125135000Y-137795000D03*
D16*
X127635000Y-137795000D03*
D12*
X69850000Y-57785000D03*
X54610000Y-50165000D03*
X67310000Y-57785000D03*
X57150000Y-50165000D03*
X64770000Y-57785000D03*
X59690000Y-50165000D03*
X62230000Y-57785000D03*
X62230000Y-50165000D03*
X59690000Y-57785000D03*
X64770000Y-50165000D03*
X57150000Y-57785000D03*
X67310000Y-50165000D03*
X54610000Y-57785000D03*
D13*
X69850000Y-50165000D03*
D10*
X109855000Y-52705000D03*
D11*
X109855000Y-45085000D03*
D12*
X127000000Y-111125000D03*
X78740000Y-95885000D03*
X124460000Y-111125000D03*
X81280000Y-95885000D03*
X121920000Y-111125000D03*
X83820000Y-95885000D03*
X119380000Y-111125000D03*
X86360000Y-95885000D03*
X116840000Y-111125000D03*
X88900000Y-95885000D03*
X114300000Y-111125000D03*
X91440000Y-95885000D03*
X111760000Y-111125000D03*
X93980000Y-95885000D03*
X109220000Y-111125000D03*
X96520000Y-95885000D03*
X106680000Y-111125000D03*
X99060000Y-95885000D03*
X104140000Y-111125000D03*
X101600000Y-95885000D03*
X101600000Y-111125000D03*
X104140000Y-95885000D03*
X99060000Y-111125000D03*
X106680000Y-95885000D03*
X96520000Y-111125000D03*
X109220000Y-95885000D03*
X93980000Y-111125000D03*
X111760000Y-95885000D03*
X91440000Y-111125000D03*
X114300000Y-95885000D03*
X88900000Y-111125000D03*
X116840000Y-95885000D03*
X86360000Y-111125000D03*
X119380000Y-95885000D03*
X83820000Y-111125000D03*
X121920000Y-95885000D03*
X81280000Y-111125000D03*
X124460000Y-95885000D03*
X78740000Y-111125000D03*
D13*
X127000000Y-95885000D03*
D17*
X134620000Y-37465000D03*
X134620000Y-159385000D03*
X41275000Y-159385000D03*
X41275000Y-37465000D03*
D18*
X42545000Y-66040000D03*
X42545000Y-72540000D03*
X47045000Y-66040000D03*
X47045000Y-72540000D03*
D11*
X54650000Y-117475000D03*
D16*
X57150000Y-117475000D03*
D19*
X88900000Y-46355000D03*
X91440000Y-46355000D03*
X93980000Y-46355000D03*
X96520000Y-46355000D03*
D20*
X99060000Y-46355000D03*
D21*
X66040000Y-155575000D03*
D22*
X68580000Y-155575000D03*
X67310000Y-155575000D03*
D23*
X64950000Y-92075000D03*
X69850000Y-92075000D03*
D12*
X112395000Y-156210000D03*
X89535000Y-148590000D03*
X109855000Y-156210000D03*
X92075000Y-148590000D03*
X107315000Y-156210000D03*
X94615000Y-148590000D03*
X104775000Y-156210000D03*
X97155000Y-148590000D03*
X102235000Y-156210000D03*
X99695000Y-148590000D03*
X99695000Y-156210000D03*
X102235000Y-148590000D03*
X97155000Y-156210000D03*
X104775000Y-148590000D03*
X94615000Y-156210000D03*
X107315000Y-148590000D03*
X92075000Y-156210000D03*
X109855000Y-148590000D03*
X89535000Y-156210000D03*
D13*
X112395000Y-148590000D03*
D12*
X109855000Y-143420000D03*
X81915000Y-135800000D03*
X107315000Y-143420000D03*
X84455000Y-135800000D03*
X104775000Y-143420000D03*
X86995000Y-135800000D03*
X102235000Y-143420000D03*
X89535000Y-135800000D03*
X99695000Y-143420000D03*
X92075000Y-135800000D03*
X97155000Y-143420000D03*
X94615000Y-135800000D03*
X94615000Y-143420000D03*
X97155000Y-135800000D03*
X92075000Y-143420000D03*
X99695000Y-135800000D03*
X89535000Y-143420000D03*
X102235000Y-135800000D03*
X86995000Y-143420000D03*
X104775000Y-135800000D03*
X84455000Y-143420000D03*
X107315000Y-135800000D03*
X81915000Y-143420000D03*
D13*
X109855000Y-135800000D03*
D24*
X122555000Y-154940000D03*
X125095000Y-154940000D03*
D25*
X127635000Y-154940000D03*
D12*
X69850000Y-85725000D03*
X54610000Y-78105000D03*
X67310000Y-85725000D03*
X57150000Y-78105000D03*
X64770000Y-85725000D03*
X59690000Y-78105000D03*
X62230000Y-85725000D03*
X62230000Y-78105000D03*
X59690000Y-85725000D03*
X64770000Y-78105000D03*
X57150000Y-85725000D03*
X67310000Y-78105000D03*
X54610000Y-85725000D03*
D13*
X69850000Y-78105000D03*
D12*
X69850000Y-45085000D03*
X52070000Y-37465000D03*
X67310000Y-45085000D03*
X54610000Y-37465000D03*
X64770000Y-45085000D03*
X57150000Y-37465000D03*
X62230000Y-45085000D03*
X59690000Y-37465000D03*
X59690000Y-45085000D03*
X62230000Y-37465000D03*
X57150000Y-45085000D03*
X64770000Y-37465000D03*
X54610000Y-45085000D03*
X67310000Y-37465000D03*
X52070000Y-45085000D03*
D13*
X69850000Y-37465000D03*
D12*
X96520000Y-90885000D03*
X78740000Y-83265000D03*
X93980000Y-90885000D03*
X81280000Y-83265000D03*
X91440000Y-90885000D03*
X83820000Y-83265000D03*
X88900000Y-90885000D03*
X86360000Y-83265000D03*
X86360000Y-90885000D03*
X88900000Y-83265000D03*
X83820000Y-90885000D03*
X91440000Y-83265000D03*
X81280000Y-90885000D03*
X93980000Y-83265000D03*
X78740000Y-90885000D03*
D13*
X96520000Y-83265000D03*
D12*
X69850000Y-70485000D03*
X54610000Y-62865000D03*
X67310000Y-70485000D03*
X57150000Y-62865000D03*
X64770000Y-70485000D03*
X59690000Y-62865000D03*
X62230000Y-70485000D03*
X62230000Y-62865000D03*
X59690000Y-70485000D03*
X64770000Y-62865000D03*
X57150000Y-70485000D03*
X67310000Y-62865000D03*
X54610000Y-70485000D03*
D13*
X69850000Y-62865000D03*
D12*
X120650000Y-65405000D03*
X105410000Y-57785000D03*
X118110000Y-65405000D03*
X107950000Y-57785000D03*
X115570000Y-65405000D03*
X110490000Y-57785000D03*
X113030000Y-65405000D03*
X113030000Y-57785000D03*
X110490000Y-65405000D03*
X115570000Y-57785000D03*
X107950000Y-65405000D03*
X118110000Y-57785000D03*
X105410000Y-65405000D03*
D13*
X120650000Y-57785000D03*
D12*
X123190000Y-90805000D03*
X105410000Y-83185000D03*
X120650000Y-90805000D03*
X107950000Y-83185000D03*
X118110000Y-90805000D03*
X110490000Y-83185000D03*
X115570000Y-90805000D03*
X113030000Y-83185000D03*
X113030000Y-90805000D03*
X115570000Y-83185000D03*
X110490000Y-90805000D03*
X118110000Y-83185000D03*
X107950000Y-90805000D03*
X120650000Y-83185000D03*
X105410000Y-90805000D03*
D13*
X123190000Y-83185000D03*
D12*
X123190000Y-78025000D03*
X105410000Y-70405000D03*
X120650000Y-78025000D03*
X107950000Y-70405000D03*
X118110000Y-78025000D03*
X110490000Y-70405000D03*
X115570000Y-78025000D03*
X113030000Y-70405000D03*
X113030000Y-78025000D03*
X115570000Y-70405000D03*
X110490000Y-78025000D03*
X118110000Y-70405000D03*
X107950000Y-78025000D03*
X120650000Y-70405000D03*
X105410000Y-78025000D03*
D13*
X123190000Y-70405000D03*
D12*
X96520000Y-78105000D03*
X78740000Y-70485000D03*
X93980000Y-78105000D03*
X81280000Y-70485000D03*
X91440000Y-78105000D03*
X83820000Y-70485000D03*
X88900000Y-78105000D03*
X86360000Y-70485000D03*
X86360000Y-78105000D03*
X88900000Y-70485000D03*
X83820000Y-78105000D03*
X91440000Y-70485000D03*
X81280000Y-78105000D03*
X93980000Y-70485000D03*
X78740000Y-78105000D03*
D13*
X96520000Y-70485000D03*
D12*
X69850000Y-143510000D03*
X54610000Y-135890000D03*
X67310000Y-143510000D03*
X57150000Y-135890000D03*
X64770000Y-143510000D03*
X59690000Y-135890000D03*
X62230000Y-143510000D03*
X62230000Y-135890000D03*
X59690000Y-143510000D03*
X64770000Y-135890000D03*
X57150000Y-143510000D03*
X67310000Y-135890000D03*
X54610000Y-143510000D03*
D13*
X69850000Y-135890000D03*
D12*
X66040000Y-111125000D03*
X50800000Y-103505000D03*
X63500000Y-111125000D03*
X53340000Y-103505000D03*
X60960000Y-111125000D03*
X55880000Y-103505000D03*
X58420000Y-111125000D03*
X58420000Y-103505000D03*
X55880000Y-111125000D03*
X60960000Y-103505000D03*
X53340000Y-111125000D03*
X63500000Y-103505000D03*
X50800000Y-111125000D03*
D13*
X66040000Y-103505000D03*
D12*
X61595000Y-156210000D03*
X46355000Y-148590000D03*
X59055000Y-156210000D03*
X48895000Y-148590000D03*
X56515000Y-156210000D03*
X51435000Y-148590000D03*
X53975000Y-156210000D03*
X53975000Y-148590000D03*
X51435000Y-156210000D03*
X56515000Y-148590000D03*
X48895000Y-156210000D03*
X59055000Y-148590000D03*
X46355000Y-156210000D03*
D13*
X61595000Y-148590000D03*
D12*
X119380000Y-131445000D03*
X86360000Y-116205000D03*
X116840000Y-131445000D03*
X88900000Y-116205000D03*
X114300000Y-131445000D03*
X91440000Y-116205000D03*
X111760000Y-131445000D03*
X93980000Y-116205000D03*
X109220000Y-131445000D03*
X96520000Y-116205000D03*
X106680000Y-131445000D03*
X99060000Y-116205000D03*
X104140000Y-131445000D03*
X101600000Y-116205000D03*
X101600000Y-131445000D03*
X104140000Y-116205000D03*
X99060000Y-131445000D03*
X106680000Y-116205000D03*
X96520000Y-131445000D03*
X109220000Y-116205000D03*
X93980000Y-131445000D03*
X111760000Y-116205000D03*
X91440000Y-131445000D03*
X114300000Y-116205000D03*
X88900000Y-131445000D03*
X116840000Y-116205000D03*
X86360000Y-131445000D03*
D13*
X119380000Y-116205000D03*
D10*
X127000000Y-131445000D03*
X124460000Y-123825000D03*
X124460000Y-131445000D03*
D16*
X127000000Y-123825000D03*
D10*
X130810000Y-92710000D03*
D11*
X130810000Y-85090000D03*
D10*
X117475000Y-52705000D03*
D11*
X117475000Y-45085000D03*
D10*
X59690000Y-98425000D03*
D11*
X67310000Y-98425000D03*
D10*
X78105000Y-52705000D03*
D11*
X78105000Y-45085000D03*
D10*
X125095000Y-45085000D03*
D11*
X125095000Y-52705000D03*
D10*
X113665000Y-52705000D03*
D11*
X113665000Y-45085000D03*
D10*
X130810000Y-95885000D03*
D11*
X130810000Y-103505000D03*
D10*
X130810000Y-106680000D03*
D11*
X130810000Y-114300000D03*
D10*
X78740000Y-123825000D03*
D11*
X78740000Y-131445000D03*
D10*
X82550000Y-123825000D03*
D11*
X82550000Y-131445000D03*
D10*
X130175000Y-41910000D03*
D11*
X130175000Y-49530000D03*
D10*
X130175000Y-73025000D03*
D11*
X130175000Y-65405000D03*
D10*
X74295000Y-115570000D03*
D11*
X66675000Y-115570000D03*
D10*
X84455000Y-156300000D03*
D11*
X84455000Y-148680000D03*
D10*
X76835000Y-156210000D03*
D11*
X76835000Y-148590000D03*
D10*
X66675000Y-119380000D03*
D11*
X74295000Y-119380000D03*
D10*
X50800000Y-135890000D03*
D11*
X50800000Y-143510000D03*
D19*
X81915000Y-48895000D03*
X81915000Y-46355000D03*
X84455000Y-48895000D03*
D20*
X84455000Y-46355000D03*
D19*
X78740000Y-120015000D03*
X78740000Y-117475000D03*
X81280000Y-120015000D03*
D20*
X81280000Y-117475000D03*
D19*
X127000000Y-167005000D03*
X127000000Y-164465000D03*
D20*
X127000000Y-161925000D03*
D19*
X125095000Y-37465000D03*
X125095000Y-40005000D03*
X122555000Y-37465000D03*
X122555000Y-40005000D03*
X120015000Y-37465000D03*
X120015000Y-40005000D03*
X117475000Y-37465000D03*
X117475000Y-40005000D03*
X114935000Y-37465000D03*
X114935000Y-40005000D03*
X112395000Y-37465000D03*
X112395000Y-40005000D03*
X109855000Y-37465000D03*
X109855000Y-40005000D03*
X107315000Y-37465000D03*
X107315000Y-40005000D03*
X104775000Y-37465000D03*
X104775000Y-40005000D03*
X102235000Y-37465000D03*
X102235000Y-40005000D03*
X99695000Y-37465000D03*
X99695000Y-40005000D03*
X97155000Y-37465000D03*
X97155000Y-40005000D03*
X94615000Y-37465000D03*
X94615000Y-40005000D03*
X92075000Y-37465000D03*
X92075000Y-40005000D03*
X89535000Y-37465000D03*
X89535000Y-40005000D03*
X86995000Y-37465000D03*
X86995000Y-40005000D03*
X84455000Y-37465000D03*
D20*
X84455000Y-40005000D03*
D10*
X121285000Y-52705000D03*
D16*
X121285000Y-45085000D03*
D10*
X46990000Y-143510000D03*
D16*
X46990000Y-135890000D03*
D10*
X80645000Y-156210000D03*
D16*
X80645000Y-148590000D03*
D10*
X73025000Y-156210000D03*
D16*
X73025000Y-148590000D03*
D26*
X132080000Y-52705000D03*
D27*
X132080000Y-55245000D03*
D26*
X132080000Y-59690000D03*
D27*
X132080000Y-62230000D03*
D11*
X116205000Y-156130000D03*
X116205000Y-151130000D03*
X113665000Y-139055000D03*
X113665000Y-144055000D03*
X73660000Y-85645000D03*
X73660000Y-80645000D03*
X73660000Y-45005000D03*
X73660000Y-40005000D03*
X100330000Y-85805000D03*
X100330000Y-90805000D03*
X124460000Y-65325000D03*
X124460000Y-60325000D03*
X127000000Y-85805000D03*
X127000000Y-90805000D03*
X73660000Y-57705000D03*
X73660000Y-52705000D03*
X74930000Y-111045000D03*
X74930000Y-106045000D03*
X127000000Y-73025000D03*
X127000000Y-78025000D03*
X100330000Y-78025000D03*
X100330000Y-73025000D03*
X97790000Y-64690000D03*
X97790000Y-59690000D03*
X73660000Y-138510000D03*
X73660000Y-143510000D03*
X68580000Y-126445000D03*
X68580000Y-131445000D03*
X69850000Y-111045000D03*
X69850000Y-106045000D03*
X64850000Y-148590000D03*
X69850000Y-148590000D03*
X123190000Y-121205000D03*
X123190000Y-116205000D03*
X54650000Y-93345000D03*
D16*
X57150000Y-93345000D03*
D11*
X74850000Y-98425000D03*
X69850000Y-98425000D03*
X62865000Y-120570000D03*
X62865000Y-115570000D03*
X119380000Y-135335000D03*
X119380000Y-140335000D03*
X125135000Y-146685000D03*
D16*
X127635000Y-146685000D03*
D11*
X119380000Y-148510000D03*
X119380000Y-143510000D03*
M02*
