G04 #@! TF.GenerationSoftware,KiCad,Pcbnew,5.99.0-unknown-b1b8a32~88~ubuntu19.10.1*
G04 #@! TF.CreationDate,2020-04-08T14:26:22+02:00*
G04 #@! TF.ProjectId,beta128_r0.3,62657461-3132-4385-9f72-302e332e6b69,rev?*
G04 #@! TF.SameCoordinates,Original*
G04 #@! TF.FileFunction,Legend,Bot*
G04 #@! TF.FilePolarity,Positive*
%FSLAX46Y46*%
G04 Gerber Fmt 4.6, Leading zero omitted, Abs format (unit mm)*
G04 Created by KiCad (PCBNEW 5.99.0-unknown-b1b8a32~88~ubuntu19.10.1) date 2020-04-08 14:26:22*
%MOMM*%
%LPD*%
G01*
G04 APERTURE LIST*
%ADD10C,0.150000*%
%ADD11C,0.300000*%
%ADD12C,0.250000*%
%ADD13C,0.120000*%
G04 APERTURE END LIST*
D10*
X45545238Y-41498571D02*
X45402380Y-41546190D01*
X45354761Y-41593809D01*
X45307142Y-41689047D01*
X45307142Y-41831904D01*
X45354761Y-41927142D01*
X45402380Y-41974761D01*
X45497619Y-42022380D01*
X45878571Y-42022380D01*
X45878571Y-41022380D01*
X45545238Y-41022380D01*
X45450000Y-41070000D01*
X45402380Y-41117619D01*
X45354761Y-41212857D01*
X45354761Y-41308095D01*
X45402380Y-41403333D01*
X45450000Y-41450952D01*
X45545238Y-41498571D01*
X45878571Y-41498571D01*
X44497619Y-41974761D02*
X44592857Y-42022380D01*
X44783333Y-42022380D01*
X44878571Y-41974761D01*
X44926190Y-41879523D01*
X44926190Y-41498571D01*
X44878571Y-41403333D01*
X44783333Y-41355714D01*
X44592857Y-41355714D01*
X44497619Y-41403333D01*
X44450000Y-41498571D01*
X44450000Y-41593809D01*
X44926190Y-41689047D01*
X44164285Y-41355714D02*
X43783333Y-41355714D01*
X44021428Y-41022380D02*
X44021428Y-41879523D01*
X43973809Y-41974761D01*
X43878571Y-42022380D01*
X43783333Y-42022380D01*
X43021428Y-42022380D02*
X43021428Y-41498571D01*
X43069047Y-41403333D01*
X43164285Y-41355714D01*
X43354761Y-41355714D01*
X43450000Y-41403333D01*
X43021428Y-41974761D02*
X43116666Y-42022380D01*
X43354761Y-42022380D01*
X43450000Y-41974761D01*
X43497619Y-41879523D01*
X43497619Y-41784285D01*
X43450000Y-41689047D01*
X43354761Y-41641428D01*
X43116666Y-41641428D01*
X43021428Y-41593809D01*
X47116666Y-43584761D02*
X46973809Y-43632380D01*
X46735714Y-43632380D01*
X46640476Y-43584761D01*
X46592857Y-43537142D01*
X46545238Y-43441904D01*
X46545238Y-43346666D01*
X46592857Y-43251428D01*
X46640476Y-43203809D01*
X46735714Y-43156190D01*
X46926190Y-43108571D01*
X47021428Y-43060952D01*
X47069047Y-43013333D01*
X47116666Y-42918095D01*
X47116666Y-42822857D01*
X47069047Y-42727619D01*
X47021428Y-42680000D01*
X46926190Y-42632380D01*
X46688095Y-42632380D01*
X46545238Y-42680000D01*
X46116666Y-43632380D02*
X46116666Y-42965714D01*
X46116666Y-42632380D02*
X46164285Y-42680000D01*
X46116666Y-42727619D01*
X46069047Y-42680000D01*
X46116666Y-42632380D01*
X46116666Y-42727619D01*
X45640476Y-42965714D02*
X45640476Y-43632380D01*
X45640476Y-43060952D02*
X45592857Y-43013333D01*
X45497619Y-42965714D01*
X45354761Y-42965714D01*
X45259523Y-43013333D01*
X45211904Y-43108571D01*
X45211904Y-43632380D01*
X44307142Y-43584761D02*
X44402380Y-43632380D01*
X44592857Y-43632380D01*
X44688095Y-43584761D01*
X44735714Y-43537142D01*
X44783333Y-43441904D01*
X44783333Y-43156190D01*
X44735714Y-43060952D01*
X44688095Y-43013333D01*
X44592857Y-42965714D01*
X44402380Y-42965714D01*
X44307142Y-43013333D01*
X43735714Y-43632380D02*
X43830952Y-43584761D01*
X43878571Y-43489523D01*
X43878571Y-42632380D01*
X42926190Y-43632380D02*
X42926190Y-43108571D01*
X42973809Y-43013333D01*
X43069047Y-42965714D01*
X43259523Y-42965714D01*
X43354761Y-43013333D01*
X42926190Y-43584761D02*
X43021428Y-43632380D01*
X43259523Y-43632380D01*
X43354761Y-43584761D01*
X43402380Y-43489523D01*
X43402380Y-43394285D01*
X43354761Y-43299047D01*
X43259523Y-43251428D01*
X43021428Y-43251428D01*
X42926190Y-43203809D01*
X42450000Y-43632380D02*
X42450000Y-42965714D01*
X42450000Y-42632380D02*
X42497619Y-42680000D01*
X42450000Y-42727619D01*
X42402380Y-42680000D01*
X42450000Y-42632380D01*
X42450000Y-42727619D01*
X41973809Y-43632380D02*
X41973809Y-42965714D01*
X41973809Y-43156190D02*
X41926190Y-43060952D01*
X41878571Y-43013333D01*
X41783333Y-42965714D01*
X41688095Y-42965714D01*
X45688095Y-45242380D02*
X46021428Y-44766190D01*
X46259523Y-45242380D02*
X46259523Y-44242380D01*
X45878571Y-44242380D01*
X45783333Y-44290000D01*
X45735714Y-44337619D01*
X45688095Y-44432857D01*
X45688095Y-44575714D01*
X45735714Y-44670952D01*
X45783333Y-44718571D01*
X45878571Y-44766190D01*
X46259523Y-44766190D01*
X44878571Y-45194761D02*
X44973809Y-45242380D01*
X45164285Y-45242380D01*
X45259523Y-45194761D01*
X45307142Y-45099523D01*
X45307142Y-44718571D01*
X45259523Y-44623333D01*
X45164285Y-44575714D01*
X44973809Y-44575714D01*
X44878571Y-44623333D01*
X44830952Y-44718571D01*
X44830952Y-44813809D01*
X45307142Y-44909047D01*
X44450000Y-45194761D02*
X44354761Y-45242380D01*
X44164285Y-45242380D01*
X44069047Y-45194761D01*
X44021428Y-45099523D01*
X44021428Y-45051904D01*
X44069047Y-44956666D01*
X44164285Y-44909047D01*
X44307142Y-44909047D01*
X44402380Y-44861428D01*
X44450000Y-44766190D01*
X44450000Y-44718571D01*
X44402380Y-44623333D01*
X44307142Y-44575714D01*
X44164285Y-44575714D01*
X44069047Y-44623333D01*
X43211904Y-45194761D02*
X43307142Y-45242380D01*
X43497619Y-45242380D01*
X43592857Y-45194761D01*
X43640476Y-45099523D01*
X43640476Y-44718571D01*
X43592857Y-44623333D01*
X43497619Y-44575714D01*
X43307142Y-44575714D01*
X43211904Y-44623333D01*
X43164285Y-44718571D01*
X43164285Y-44813809D01*
X43640476Y-44909047D01*
X42878571Y-44575714D02*
X42497619Y-44575714D01*
X42735714Y-44242380D02*
X42735714Y-45099523D01*
X42688095Y-45194761D01*
X42592857Y-45242380D01*
X42497619Y-45242380D01*
D11*
X46640476Y-77694761D02*
X46640476Y-75694761D01*
X45497619Y-77694761D01*
X45497619Y-75694761D01*
X44545238Y-77694761D02*
X44545238Y-75694761D01*
X43878571Y-77123333D01*
X43211904Y-75694761D01*
X43211904Y-77694761D01*
X42259523Y-77694761D02*
X42259523Y-75694761D01*
X48259523Y-80914761D02*
X48259523Y-78914761D01*
X47592857Y-80343333D01*
X46926190Y-78914761D01*
X46926190Y-80914761D01*
X45116666Y-80914761D02*
X45116666Y-79867142D01*
X45211904Y-79676666D01*
X45402380Y-79581428D01*
X45783333Y-79581428D01*
X45973809Y-79676666D01*
X45116666Y-80819523D02*
X45307142Y-80914761D01*
X45783333Y-80914761D01*
X45973809Y-80819523D01*
X46069047Y-80629047D01*
X46069047Y-80438571D01*
X45973809Y-80248095D01*
X45783333Y-80152857D01*
X45307142Y-80152857D01*
X45116666Y-80057619D01*
X43307142Y-79581428D02*
X43307142Y-81200476D01*
X43402380Y-81390952D01*
X43497619Y-81486190D01*
X43688095Y-81581428D01*
X43973809Y-81581428D01*
X44164285Y-81486190D01*
X43307142Y-80819523D02*
X43497619Y-80914761D01*
X43878571Y-80914761D01*
X44069047Y-80819523D01*
X44164285Y-80724285D01*
X44259523Y-80533809D01*
X44259523Y-79962380D01*
X44164285Y-79771904D01*
X44069047Y-79676666D01*
X43878571Y-79581428D01*
X43497619Y-79581428D01*
X43307142Y-79676666D01*
X42354761Y-80914761D02*
X42354761Y-79581428D01*
X42354761Y-78914761D02*
X42450000Y-79010000D01*
X42354761Y-79105238D01*
X42259523Y-79010000D01*
X42354761Y-78914761D01*
X42354761Y-79105238D01*
X40545238Y-80819523D02*
X40735714Y-80914761D01*
X41116666Y-80914761D01*
X41307142Y-80819523D01*
X41402380Y-80724285D01*
X41497619Y-80533809D01*
X41497619Y-79962380D01*
X41402380Y-79771904D01*
X41307142Y-79676666D01*
X41116666Y-79581428D01*
X40735714Y-79581428D01*
X40545238Y-79676666D01*
X48164285Y-83087142D02*
X47878571Y-83182380D01*
X47783333Y-83277619D01*
X47688095Y-83468095D01*
X47688095Y-83753809D01*
X47783333Y-83944285D01*
X47878571Y-84039523D01*
X48069047Y-84134761D01*
X48830952Y-84134761D01*
X48830952Y-82134761D01*
X48164285Y-82134761D01*
X47973809Y-82230000D01*
X47878571Y-82325238D01*
X47783333Y-82515714D01*
X47783333Y-82706190D01*
X47878571Y-82896666D01*
X47973809Y-82991904D01*
X48164285Y-83087142D01*
X48830952Y-83087142D01*
X45973809Y-82801428D02*
X45973809Y-84134761D01*
X46830952Y-82801428D02*
X46830952Y-83849047D01*
X46735714Y-84039523D01*
X46545238Y-84134761D01*
X46259523Y-84134761D01*
X46069047Y-84039523D01*
X45973809Y-83944285D01*
X45307142Y-82801428D02*
X44545238Y-82801428D01*
X45021428Y-82134761D02*
X45021428Y-83849047D01*
X44926190Y-84039523D01*
X44735714Y-84134761D01*
X44545238Y-84134761D01*
X44164285Y-82801428D02*
X43402380Y-82801428D01*
X43878571Y-82134761D02*
X43878571Y-83849047D01*
X43783333Y-84039523D01*
X43592857Y-84134761D01*
X43402380Y-84134761D01*
X42450000Y-84134761D02*
X42640476Y-84039523D01*
X42735714Y-83944285D01*
X42830952Y-83753809D01*
X42830952Y-83182380D01*
X42735714Y-82991904D01*
X42640476Y-82896666D01*
X42450000Y-82801428D01*
X42164285Y-82801428D01*
X41973809Y-82896666D01*
X41878571Y-82991904D01*
X41783333Y-83182380D01*
X41783333Y-83753809D01*
X41878571Y-83944285D01*
X41973809Y-84039523D01*
X42164285Y-84134761D01*
X42450000Y-84134761D01*
X40926190Y-82801428D02*
X40926190Y-84134761D01*
X40926190Y-82991904D02*
X40830952Y-82896666D01*
X40640476Y-82801428D01*
X40354761Y-82801428D01*
X40164285Y-82896666D01*
X40069047Y-83087142D01*
X40069047Y-84134761D01*
X118520714Y-101117142D02*
X118235000Y-101212380D01*
X118139761Y-101307619D01*
X118044523Y-101498095D01*
X118044523Y-101783809D01*
X118139761Y-101974285D01*
X118235000Y-102069523D01*
X118425476Y-102164761D01*
X119187380Y-102164761D01*
X119187380Y-100164761D01*
X118520714Y-100164761D01*
X118330238Y-100260000D01*
X118235000Y-100355238D01*
X118139761Y-100545714D01*
X118139761Y-100736190D01*
X118235000Y-100926666D01*
X118330238Y-101021904D01*
X118520714Y-101117142D01*
X119187380Y-101117142D01*
X116425476Y-102069523D02*
X116615952Y-102164761D01*
X116996904Y-102164761D01*
X117187380Y-102069523D01*
X117282619Y-101879047D01*
X117282619Y-101117142D01*
X117187380Y-100926666D01*
X116996904Y-100831428D01*
X116615952Y-100831428D01*
X116425476Y-100926666D01*
X116330238Y-101117142D01*
X116330238Y-101307619D01*
X117282619Y-101498095D01*
X115758809Y-100831428D02*
X114996904Y-100831428D01*
X115473095Y-100164761D02*
X115473095Y-101879047D01*
X115377857Y-102069523D01*
X115187380Y-102164761D01*
X114996904Y-102164761D01*
X113473095Y-102164761D02*
X113473095Y-101117142D01*
X113568333Y-100926666D01*
X113758809Y-100831428D01*
X114139761Y-100831428D01*
X114330238Y-100926666D01*
X113473095Y-102069523D02*
X113663571Y-102164761D01*
X114139761Y-102164761D01*
X114330238Y-102069523D01*
X114425476Y-101879047D01*
X114425476Y-101688571D01*
X114330238Y-101498095D01*
X114139761Y-101402857D01*
X113663571Y-101402857D01*
X113473095Y-101307619D01*
X111473095Y-102164761D02*
X112615952Y-102164761D01*
X112044523Y-102164761D02*
X112044523Y-100164761D01*
X112235000Y-100450476D01*
X112425476Y-100640952D01*
X112615952Y-100736190D01*
X110711190Y-100355238D02*
X110615952Y-100260000D01*
X110425476Y-100164761D01*
X109949285Y-100164761D01*
X109758809Y-100260000D01*
X109663571Y-100355238D01*
X109568333Y-100545714D01*
X109568333Y-100736190D01*
X109663571Y-101021904D01*
X110806428Y-102164761D01*
X109568333Y-102164761D01*
X108425476Y-101021904D02*
X108615952Y-100926666D01*
X108711190Y-100831428D01*
X108806428Y-100640952D01*
X108806428Y-100545714D01*
X108711190Y-100355238D01*
X108615952Y-100260000D01*
X108425476Y-100164761D01*
X108044523Y-100164761D01*
X107854047Y-100260000D01*
X107758809Y-100355238D01*
X107663571Y-100545714D01*
X107663571Y-100640952D01*
X107758809Y-100831428D01*
X107854047Y-100926666D01*
X108044523Y-101021904D01*
X108425476Y-101021904D01*
X108615952Y-101117142D01*
X108711190Y-101212380D01*
X108806428Y-101402857D01*
X108806428Y-101783809D01*
X108711190Y-101974285D01*
X108615952Y-102069523D01*
X108425476Y-102164761D01*
X108044523Y-102164761D01*
X107854047Y-102069523D01*
X107758809Y-101974285D01*
X107663571Y-101783809D01*
X107663571Y-101402857D01*
X107758809Y-101212380D01*
X107854047Y-101117142D01*
X108044523Y-101021904D01*
X105282619Y-102164761D02*
X105282619Y-100164761D01*
X104806428Y-100164761D01*
X104520714Y-100260000D01*
X104330238Y-100450476D01*
X104235000Y-100640952D01*
X104139761Y-101021904D01*
X104139761Y-101307619D01*
X104235000Y-101688571D01*
X104330238Y-101879047D01*
X104520714Y-102069523D01*
X104806428Y-102164761D01*
X105282619Y-102164761D01*
X103282619Y-102164761D02*
X103282619Y-100831428D01*
X103282619Y-100164761D02*
X103377857Y-100260000D01*
X103282619Y-100355238D01*
X103187380Y-100260000D01*
X103282619Y-100164761D01*
X103282619Y-100355238D01*
X102425476Y-102069523D02*
X102235000Y-102164761D01*
X101854047Y-102164761D01*
X101663571Y-102069523D01*
X101568333Y-101879047D01*
X101568333Y-101783809D01*
X101663571Y-101593333D01*
X101854047Y-101498095D01*
X102139761Y-101498095D01*
X102330238Y-101402857D01*
X102425476Y-101212380D01*
X102425476Y-101117142D01*
X102330238Y-100926666D01*
X102139761Y-100831428D01*
X101854047Y-100831428D01*
X101663571Y-100926666D01*
X100711190Y-102164761D02*
X100711190Y-100164761D01*
X100520714Y-101402857D02*
X99949285Y-102164761D01*
X99949285Y-100831428D02*
X100711190Y-101593333D01*
X97568333Y-102164761D02*
X97568333Y-100164761D01*
X96615952Y-100831428D02*
X96615952Y-102164761D01*
X96615952Y-101021904D02*
X96520714Y-100926666D01*
X96330238Y-100831428D01*
X96044523Y-100831428D01*
X95854047Y-100926666D01*
X95758809Y-101117142D01*
X95758809Y-102164761D01*
X95092142Y-100831428D02*
X94330238Y-100831428D01*
X94806428Y-100164761D02*
X94806428Y-101879047D01*
X94711190Y-102069523D01*
X94520714Y-102164761D01*
X94330238Y-102164761D01*
X92901666Y-102069523D02*
X93092142Y-102164761D01*
X93473095Y-102164761D01*
X93663571Y-102069523D01*
X93758809Y-101879047D01*
X93758809Y-101117142D01*
X93663571Y-100926666D01*
X93473095Y-100831428D01*
X93092142Y-100831428D01*
X92901666Y-100926666D01*
X92806428Y-101117142D01*
X92806428Y-101307619D01*
X93758809Y-101498095D01*
X91949285Y-102164761D02*
X91949285Y-100831428D01*
X91949285Y-101212380D02*
X91854047Y-101021904D01*
X91758809Y-100926666D01*
X91568333Y-100831428D01*
X91377857Y-100831428D01*
X90996904Y-100831428D02*
X90235000Y-100831428D01*
X90711190Y-102164761D02*
X90711190Y-100450476D01*
X90615952Y-100260000D01*
X90425476Y-100164761D01*
X90235000Y-100164761D01*
X88711190Y-102164761D02*
X88711190Y-101117142D01*
X88806428Y-100926666D01*
X88996904Y-100831428D01*
X89377857Y-100831428D01*
X89568333Y-100926666D01*
X88711190Y-102069523D02*
X88901666Y-102164761D01*
X89377857Y-102164761D01*
X89568333Y-102069523D01*
X89663571Y-101879047D01*
X89663571Y-101688571D01*
X89568333Y-101498095D01*
X89377857Y-101402857D01*
X88901666Y-101402857D01*
X88711190Y-101307619D01*
X86901666Y-102069523D02*
X87092142Y-102164761D01*
X87473095Y-102164761D01*
X87663571Y-102069523D01*
X87758809Y-101974285D01*
X87854047Y-101783809D01*
X87854047Y-101212380D01*
X87758809Y-101021904D01*
X87663571Y-100926666D01*
X87473095Y-100831428D01*
X87092142Y-100831428D01*
X86901666Y-100926666D01*
X85282619Y-102069523D02*
X85473095Y-102164761D01*
X85854047Y-102164761D01*
X86044523Y-102069523D01*
X86139761Y-101879047D01*
X86139761Y-101117142D01*
X86044523Y-100926666D01*
X85854047Y-100831428D01*
X85473095Y-100831428D01*
X85282619Y-100926666D01*
X85187380Y-101117142D01*
X85187380Y-101307619D01*
X86139761Y-101498095D01*
X126092142Y-104337142D02*
X126758809Y-104337142D01*
X126758809Y-105384761D02*
X126758809Y-103384761D01*
X125806428Y-103384761D01*
X124758809Y-105384761D02*
X124949285Y-105289523D01*
X125044523Y-105194285D01*
X125139761Y-105003809D01*
X125139761Y-104432380D01*
X125044523Y-104241904D01*
X124949285Y-104146666D01*
X124758809Y-104051428D01*
X124473095Y-104051428D01*
X124282619Y-104146666D01*
X124187380Y-104241904D01*
X124092142Y-104432380D01*
X124092142Y-105003809D01*
X124187380Y-105194285D01*
X124282619Y-105289523D01*
X124473095Y-105384761D01*
X124758809Y-105384761D01*
X123235000Y-105384761D02*
X123235000Y-104051428D01*
X123235000Y-104432380D02*
X123139761Y-104241904D01*
X123044523Y-104146666D01*
X122854047Y-104051428D01*
X122663571Y-104051428D01*
X120663571Y-103384761D02*
X119330238Y-103384761D01*
X120663571Y-105384761D01*
X119330238Y-105384761D01*
X118758809Y-103384761D02*
X117425476Y-105384761D01*
X117425476Y-103384761D02*
X118758809Y-105384761D01*
X115235000Y-105289523D02*
X114949285Y-105384761D01*
X114473095Y-105384761D01*
X114282619Y-105289523D01*
X114187380Y-105194285D01*
X114092142Y-105003809D01*
X114092142Y-104813333D01*
X114187380Y-104622857D01*
X114282619Y-104527619D01*
X114473095Y-104432380D01*
X114854047Y-104337142D01*
X115044523Y-104241904D01*
X115139761Y-104146666D01*
X115235000Y-103956190D01*
X115235000Y-103765714D01*
X115139761Y-103575238D01*
X115044523Y-103480000D01*
X114854047Y-103384761D01*
X114377857Y-103384761D01*
X114092142Y-103480000D01*
X113235000Y-104051428D02*
X113235000Y-106051428D01*
X113235000Y-104146666D02*
X113044523Y-104051428D01*
X112663571Y-104051428D01*
X112473095Y-104146666D01*
X112377857Y-104241904D01*
X112282619Y-104432380D01*
X112282619Y-105003809D01*
X112377857Y-105194285D01*
X112473095Y-105289523D01*
X112663571Y-105384761D01*
X113044523Y-105384761D01*
X113235000Y-105289523D01*
X110663571Y-105289523D02*
X110854047Y-105384761D01*
X111235000Y-105384761D01*
X111425476Y-105289523D01*
X111520714Y-105099047D01*
X111520714Y-104337142D01*
X111425476Y-104146666D01*
X111235000Y-104051428D01*
X110854047Y-104051428D01*
X110663571Y-104146666D01*
X110568333Y-104337142D01*
X110568333Y-104527619D01*
X111520714Y-104718095D01*
X108854047Y-105289523D02*
X109044523Y-105384761D01*
X109425476Y-105384761D01*
X109615952Y-105289523D01*
X109711190Y-105194285D01*
X109806428Y-105003809D01*
X109806428Y-104432380D01*
X109711190Y-104241904D01*
X109615952Y-104146666D01*
X109425476Y-104051428D01*
X109044523Y-104051428D01*
X108854047Y-104146666D01*
X108282619Y-104051428D02*
X107520714Y-104051428D01*
X107996904Y-103384761D02*
X107996904Y-105099047D01*
X107901666Y-105289523D01*
X107711190Y-105384761D01*
X107520714Y-105384761D01*
X106854047Y-105384761D02*
X106854047Y-104051428D01*
X106854047Y-104432380D02*
X106758809Y-104241904D01*
X106663571Y-104146666D01*
X106473095Y-104051428D01*
X106282619Y-104051428D01*
X104758809Y-104051428D02*
X104758809Y-105384761D01*
X105615952Y-104051428D02*
X105615952Y-105099047D01*
X105520714Y-105289523D01*
X105330238Y-105384761D01*
X105044523Y-105384761D01*
X104854047Y-105289523D01*
X104758809Y-105194285D01*
X103806428Y-105384761D02*
X103806428Y-104051428D01*
X103806428Y-104241904D02*
X103711190Y-104146666D01*
X103520714Y-104051428D01*
X103235000Y-104051428D01*
X103044523Y-104146666D01*
X102949285Y-104337142D01*
X102949285Y-105384761D01*
X102949285Y-104337142D02*
X102854047Y-104146666D01*
X102663571Y-104051428D01*
X102377857Y-104051428D01*
X102187380Y-104146666D01*
X102092142Y-104337142D01*
X102092142Y-105384761D01*
X98758809Y-104051428D02*
X98758809Y-105384761D01*
X99235000Y-103289523D02*
X99711190Y-104718095D01*
X98473095Y-104718095D01*
X97425476Y-104241904D02*
X97615952Y-104146666D01*
X97711190Y-104051428D01*
X97806428Y-103860952D01*
X97806428Y-103765714D01*
X97711190Y-103575238D01*
X97615952Y-103480000D01*
X97425476Y-103384761D01*
X97044523Y-103384761D01*
X96854047Y-103480000D01*
X96758809Y-103575238D01*
X96663571Y-103765714D01*
X96663571Y-103860952D01*
X96758809Y-104051428D01*
X96854047Y-104146666D01*
X97044523Y-104241904D01*
X97425476Y-104241904D01*
X97615952Y-104337142D01*
X97711190Y-104432380D01*
X97806428Y-104622857D01*
X97806428Y-105003809D01*
X97711190Y-105194285D01*
X97615952Y-105289523D01*
X97425476Y-105384761D01*
X97044523Y-105384761D01*
X96854047Y-105289523D01*
X96758809Y-105194285D01*
X96663571Y-105003809D01*
X96663571Y-104622857D01*
X96758809Y-104432380D01*
X96854047Y-104337142D01*
X97044523Y-104241904D01*
X95806428Y-105384761D02*
X95806428Y-103384761D01*
X95615952Y-104622857D02*
X95044523Y-105384761D01*
X95044523Y-104051428D02*
X95806428Y-104813333D01*
X92758809Y-103289523D02*
X94473095Y-105860952D01*
X91044523Y-105384761D02*
X92187380Y-105384761D01*
X91615952Y-105384761D02*
X91615952Y-103384761D01*
X91806428Y-103670476D01*
X91996904Y-103860952D01*
X92187380Y-103956190D01*
X90282619Y-103575238D02*
X90187380Y-103480000D01*
X89996904Y-103384761D01*
X89520714Y-103384761D01*
X89330238Y-103480000D01*
X89235000Y-103575238D01*
X89139761Y-103765714D01*
X89139761Y-103956190D01*
X89235000Y-104241904D01*
X90377857Y-105384761D01*
X89139761Y-105384761D01*
X87996904Y-104241904D02*
X88187380Y-104146666D01*
X88282619Y-104051428D01*
X88377857Y-103860952D01*
X88377857Y-103765714D01*
X88282619Y-103575238D01*
X88187380Y-103480000D01*
X87996904Y-103384761D01*
X87615952Y-103384761D01*
X87425476Y-103480000D01*
X87330238Y-103575238D01*
X87235000Y-103765714D01*
X87235000Y-103860952D01*
X87330238Y-104051428D01*
X87425476Y-104146666D01*
X87615952Y-104241904D01*
X87996904Y-104241904D01*
X88187380Y-104337142D01*
X88282619Y-104432380D01*
X88377857Y-104622857D01*
X88377857Y-105003809D01*
X88282619Y-105194285D01*
X88187380Y-105289523D01*
X87996904Y-105384761D01*
X87615952Y-105384761D01*
X87425476Y-105289523D01*
X87330238Y-105194285D01*
X87235000Y-105003809D01*
X87235000Y-104622857D01*
X87330238Y-104432380D01*
X87425476Y-104337142D01*
X87615952Y-104241904D01*
X86377857Y-105384761D02*
X86377857Y-103384761D01*
X86187380Y-104622857D02*
X85615952Y-105384761D01*
X85615952Y-104051428D02*
X86377857Y-104813333D01*
X83330238Y-103289523D02*
X85044523Y-105860952D01*
X82663571Y-104622857D02*
X81139761Y-104622857D01*
X81901666Y-105384761D02*
X81901666Y-103860952D01*
X80282619Y-103575238D02*
X80187380Y-103480000D01*
X79996904Y-103384761D01*
X79520714Y-103384761D01*
X79330238Y-103480000D01*
X79235000Y-103575238D01*
X79139761Y-103765714D01*
X79139761Y-103956190D01*
X79235000Y-104241904D01*
X80377857Y-105384761D01*
X79139761Y-105384761D01*
D12*
X120971666Y-120667857D02*
X120505000Y-120667857D01*
X120305000Y-121453571D02*
X120971666Y-121453571D01*
X120971666Y-119953571D01*
X120305000Y-119953571D01*
X119105000Y-121453571D02*
X119105000Y-119953571D01*
X119105000Y-121382142D02*
X119238333Y-121453571D01*
X119505000Y-121453571D01*
X119638333Y-121382142D01*
X119705000Y-121310714D01*
X119771666Y-121167857D01*
X119771666Y-120739285D01*
X119705000Y-120596428D01*
X119638333Y-120525000D01*
X119505000Y-120453571D01*
X119238333Y-120453571D01*
X119105000Y-120525000D01*
X118438333Y-121453571D02*
X118438333Y-120453571D01*
X118438333Y-119953571D02*
X118505000Y-120025000D01*
X118438333Y-120096428D01*
X118371666Y-120025000D01*
X118438333Y-119953571D01*
X118438333Y-120096428D01*
X117971666Y-120453571D02*
X117438333Y-120453571D01*
X117771666Y-119953571D02*
X117771666Y-121239285D01*
X117705000Y-121382142D01*
X117571666Y-121453571D01*
X117438333Y-121453571D01*
X116971666Y-121453571D02*
X116971666Y-120453571D01*
X116971666Y-119953571D02*
X117038333Y-120025000D01*
X116971666Y-120096428D01*
X116905000Y-120025000D01*
X116971666Y-119953571D01*
X116971666Y-120096428D01*
X116105000Y-121453571D02*
X116238333Y-121382142D01*
X116305000Y-121310714D01*
X116371666Y-121167857D01*
X116371666Y-120739285D01*
X116305000Y-120596428D01*
X116238333Y-120525000D01*
X116105000Y-120453571D01*
X115905000Y-120453571D01*
X115771666Y-120525000D01*
X115705000Y-120596428D01*
X115638333Y-120739285D01*
X115638333Y-121167857D01*
X115705000Y-121310714D01*
X115771666Y-121382142D01*
X115905000Y-121453571D01*
X116105000Y-121453571D01*
X115038333Y-120453571D02*
X115038333Y-121453571D01*
X115038333Y-120596428D02*
X114971666Y-120525000D01*
X114838333Y-120453571D01*
X114638333Y-120453571D01*
X114505000Y-120525000D01*
X114438333Y-120667857D01*
X114438333Y-121453571D01*
X112905000Y-120453571D02*
X112371666Y-120453571D01*
X112705000Y-121453571D02*
X112705000Y-120167857D01*
X112638333Y-120025000D01*
X112505000Y-119953571D01*
X112371666Y-119953571D01*
X111705000Y-121453571D02*
X111838333Y-121382142D01*
X111905000Y-121310714D01*
X111971666Y-121167857D01*
X111971666Y-120739285D01*
X111905000Y-120596428D01*
X111838333Y-120525000D01*
X111705000Y-120453571D01*
X111505000Y-120453571D01*
X111371666Y-120525000D01*
X111305000Y-120596428D01*
X111238333Y-120739285D01*
X111238333Y-121167857D01*
X111305000Y-121310714D01*
X111371666Y-121382142D01*
X111505000Y-121453571D01*
X111705000Y-121453571D01*
X110638333Y-121453571D02*
X110638333Y-120453571D01*
X110638333Y-120739285D02*
X110571666Y-120596428D01*
X110505000Y-120525000D01*
X110371666Y-120453571D01*
X110238333Y-120453571D01*
X108838333Y-120453571D02*
X108571666Y-121453571D01*
X108305000Y-120739285D01*
X108038333Y-121453571D01*
X107771666Y-120453571D01*
X107371666Y-120453571D02*
X107104999Y-121453571D01*
X106838333Y-120739285D01*
X106571666Y-121453571D01*
X106304999Y-120453571D01*
X105904999Y-120453571D02*
X105638333Y-121453571D01*
X105371666Y-120739285D01*
X105104999Y-121453571D01*
X104838333Y-120453571D01*
X104304999Y-121310714D02*
X104238333Y-121382142D01*
X104304999Y-121453571D01*
X104371666Y-121382142D01*
X104304999Y-121310714D01*
X104304999Y-121453571D01*
X103771666Y-120453571D02*
X103438333Y-121453571D01*
X103104999Y-120453571D01*
X101971666Y-121453571D02*
X101971666Y-120667857D01*
X102038333Y-120525000D01*
X102171666Y-120453571D01*
X102438333Y-120453571D01*
X102571666Y-120525000D01*
X101971666Y-121382142D02*
X102104999Y-121453571D01*
X102438333Y-121453571D01*
X102571666Y-121382142D01*
X102638333Y-121239285D01*
X102638333Y-121096428D01*
X102571666Y-120953571D01*
X102438333Y-120882142D01*
X102104999Y-120882142D01*
X101971666Y-120810714D01*
X101304999Y-120882142D02*
X100238333Y-120882142D01*
X98971666Y-121453571D02*
X98971666Y-119953571D01*
X98971666Y-121382142D02*
X99104999Y-121453571D01*
X99371666Y-121453571D01*
X99504999Y-121382142D01*
X99571666Y-121310714D01*
X99638333Y-121167857D01*
X99638333Y-120739285D01*
X99571666Y-120596428D01*
X99504999Y-120525000D01*
X99371666Y-120453571D01*
X99104999Y-120453571D01*
X98971666Y-120525000D01*
X97771666Y-121382142D02*
X97904999Y-121453571D01*
X98171666Y-121453571D01*
X98304999Y-121382142D01*
X98371666Y-121239285D01*
X98371666Y-120667857D01*
X98304999Y-120525000D01*
X98171666Y-120453571D01*
X97904999Y-120453571D01*
X97771666Y-120525000D01*
X97704999Y-120667857D01*
X97704999Y-120810714D01*
X98371666Y-120953571D01*
X97104999Y-120882142D02*
X96038333Y-120882142D01*
X95371666Y-121453571D02*
X95371666Y-120453571D01*
X95371666Y-120739285D02*
X95304999Y-120596428D01*
X95238333Y-120525000D01*
X95104999Y-120453571D01*
X94971666Y-120453571D01*
X93971666Y-121382142D02*
X94104999Y-121453571D01*
X94371666Y-121453571D01*
X94504999Y-121382142D01*
X94571666Y-121239285D01*
X94571666Y-120667857D01*
X94504999Y-120525000D01*
X94371666Y-120453571D01*
X94104999Y-120453571D01*
X93971666Y-120525000D01*
X93904999Y-120667857D01*
X93904999Y-120810714D01*
X94571666Y-120953571D01*
X93504999Y-120453571D02*
X92971666Y-120453571D01*
X93304999Y-119953571D02*
X93304999Y-121239285D01*
X93238333Y-121382142D01*
X93104999Y-121453571D01*
X92971666Y-121453571D01*
X92504999Y-121453571D02*
X92504999Y-120453571D01*
X92504999Y-120739285D02*
X92438333Y-120596428D01*
X92371666Y-120525000D01*
X92238333Y-120453571D01*
X92104999Y-120453571D01*
X91438333Y-121453571D02*
X91571666Y-121382142D01*
X91638333Y-121310714D01*
X91704999Y-121167857D01*
X91704999Y-120739285D01*
X91638333Y-120596428D01*
X91571666Y-120525000D01*
X91438333Y-120453571D01*
X91238333Y-120453571D01*
X91104999Y-120525000D01*
X91038333Y-120596428D01*
X90971666Y-120739285D01*
X90971666Y-121167857D01*
X91038333Y-121310714D01*
X91104999Y-121382142D01*
X91238333Y-121453571D01*
X91438333Y-121453571D01*
X90371666Y-121310714D02*
X90304999Y-121382142D01*
X90371666Y-121453571D01*
X90438333Y-121382142D01*
X90371666Y-121310714D01*
X90371666Y-121453571D01*
X89104999Y-121382142D02*
X89238333Y-121453571D01*
X89504999Y-121453571D01*
X89638333Y-121382142D01*
X89704999Y-121310714D01*
X89771666Y-121167857D01*
X89771666Y-120739285D01*
X89704999Y-120596428D01*
X89638333Y-120525000D01*
X89504999Y-120453571D01*
X89238333Y-120453571D01*
X89104999Y-120525000D01*
X88304999Y-121453571D02*
X88438333Y-121382142D01*
X88504999Y-121310714D01*
X88571666Y-121167857D01*
X88571666Y-120739285D01*
X88504999Y-120596428D01*
X88438333Y-120525000D01*
X88304999Y-120453571D01*
X88104999Y-120453571D01*
X87971666Y-120525000D01*
X87904999Y-120596428D01*
X87838333Y-120739285D01*
X87838333Y-121167857D01*
X87904999Y-121310714D01*
X87971666Y-121382142D01*
X88104999Y-121453571D01*
X88304999Y-121453571D01*
X87238333Y-121453571D02*
X87238333Y-120453571D01*
X87238333Y-120596428D02*
X87171666Y-120525000D01*
X87038333Y-120453571D01*
X86838333Y-120453571D01*
X86704999Y-120525000D01*
X86638333Y-120667857D01*
X86638333Y-121453571D01*
X86638333Y-120667857D02*
X86571666Y-120525000D01*
X86438333Y-120453571D01*
X86238333Y-120453571D01*
X86104999Y-120525000D01*
X86038333Y-120667857D01*
X86038333Y-121453571D01*
X119871666Y-126283571D02*
X119871666Y-124783571D01*
X119338333Y-124783571D01*
X119205000Y-124855000D01*
X119138333Y-124926428D01*
X119071666Y-125069285D01*
X119071666Y-125283571D01*
X119138333Y-125426428D01*
X119205000Y-125497857D01*
X119338333Y-125569285D01*
X119871666Y-125569285D01*
X117671666Y-126140714D02*
X117738333Y-126212142D01*
X117938333Y-126283571D01*
X118071666Y-126283571D01*
X118271666Y-126212142D01*
X118405000Y-126069285D01*
X118471666Y-125926428D01*
X118538333Y-125640714D01*
X118538333Y-125426428D01*
X118471666Y-125140714D01*
X118405000Y-124997857D01*
X118271666Y-124855000D01*
X118071666Y-124783571D01*
X117938333Y-124783571D01*
X117738333Y-124855000D01*
X117671666Y-124926428D01*
X116605000Y-125497857D02*
X116405000Y-125569285D01*
X116338333Y-125640714D01*
X116271666Y-125783571D01*
X116271666Y-125997857D01*
X116338333Y-126140714D01*
X116405000Y-126212142D01*
X116538333Y-126283571D01*
X117071666Y-126283571D01*
X117071666Y-124783571D01*
X116605000Y-124783571D01*
X116471666Y-124855000D01*
X116405000Y-124926428D01*
X116338333Y-125069285D01*
X116338333Y-125212142D01*
X116405000Y-125355000D01*
X116471666Y-125426428D01*
X116605000Y-125497857D01*
X117071666Y-125497857D01*
X114605000Y-126283571D02*
X114605000Y-124783571D01*
X114605000Y-125355000D02*
X114471666Y-125283571D01*
X114205000Y-125283571D01*
X114071666Y-125355000D01*
X114005000Y-125426428D01*
X113938333Y-125569285D01*
X113938333Y-125997857D01*
X114005000Y-126140714D01*
X114071666Y-126212142D01*
X114205000Y-126283571D01*
X114471666Y-126283571D01*
X114605000Y-126212142D01*
X113471666Y-125283571D02*
X113138333Y-126283571D01*
X112805000Y-125283571D02*
X113138333Y-126283571D01*
X113271666Y-126640714D01*
X113338333Y-126712142D01*
X113471666Y-126783571D01*
X111271666Y-125855000D02*
X110605000Y-125855000D01*
X111405000Y-126283571D02*
X110938333Y-124783571D01*
X110471666Y-126283571D01*
X109805000Y-126283571D02*
X109938333Y-126212142D01*
X110005000Y-126069285D01*
X110005000Y-124783571D01*
X109405000Y-125283571D02*
X109071666Y-126283571D01*
X108738333Y-125283571D01*
X107605000Y-126283571D02*
X107605000Y-125497857D01*
X107671666Y-125355000D01*
X107805000Y-125283571D01*
X108071666Y-125283571D01*
X108205000Y-125355000D01*
X107605000Y-126212142D02*
X107738333Y-126283571D01*
X108071666Y-126283571D01*
X108205000Y-126212142D01*
X108271666Y-126069285D01*
X108271666Y-125926428D01*
X108205000Y-125783571D01*
X108071666Y-125712142D01*
X107738333Y-125712142D01*
X107605000Y-125640714D01*
X106938333Y-126283571D02*
X106938333Y-125283571D01*
X106938333Y-125569285D02*
X106871666Y-125426428D01*
X106805000Y-125355000D01*
X106671666Y-125283571D01*
X106538333Y-125283571D01*
X105871666Y-126283571D02*
X106005000Y-126212142D01*
X106071666Y-126140714D01*
X106138333Y-125997857D01*
X106138333Y-125569285D01*
X106071666Y-125426428D01*
X106005000Y-125355000D01*
X105871666Y-125283571D01*
X105671666Y-125283571D01*
X105538333Y-125355000D01*
X105471666Y-125426428D01*
X105405000Y-125569285D01*
X105405000Y-125997857D01*
X105471666Y-126140714D01*
X105538333Y-126212142D01*
X105671666Y-126283571D01*
X105871666Y-126283571D01*
X103805000Y-125855000D02*
X103138333Y-125855000D01*
X103938333Y-126283571D02*
X103471666Y-124783571D01*
X103005000Y-126283571D01*
X102338333Y-126283571D02*
X102471666Y-126212142D01*
X102538333Y-126069285D01*
X102538333Y-124783571D01*
X101271666Y-126212142D02*
X101405000Y-126283571D01*
X101671666Y-126283571D01*
X101805000Y-126212142D01*
X101871666Y-126069285D01*
X101871666Y-125497857D01*
X101805000Y-125355000D01*
X101671666Y-125283571D01*
X101405000Y-125283571D01*
X101271666Y-125355000D01*
X101205000Y-125497857D01*
X101205000Y-125640714D01*
X101871666Y-125783571D01*
X100005000Y-126283571D02*
X100005000Y-125497857D01*
X100071666Y-125355000D01*
X100205000Y-125283571D01*
X100471666Y-125283571D01*
X100605000Y-125355000D01*
X100005000Y-126212142D02*
X100138333Y-126283571D01*
X100471666Y-126283571D01*
X100605000Y-126212142D01*
X100671666Y-126069285D01*
X100671666Y-125926428D01*
X100605000Y-125783571D01*
X100471666Y-125712142D01*
X100138333Y-125712142D01*
X100005000Y-125640714D01*
X96805000Y-126855000D02*
X96871666Y-126783571D01*
X97005000Y-126569285D01*
X97071666Y-126426428D01*
X97138333Y-126212142D01*
X97205000Y-125855000D01*
X97205000Y-125569285D01*
X97138333Y-125212142D01*
X97071666Y-124997857D01*
X97005000Y-124855000D01*
X96871666Y-124640714D01*
X96805000Y-124569285D01*
X95471666Y-126140714D02*
X95538333Y-126212142D01*
X95738333Y-126283571D01*
X95871666Y-126283571D01*
X96071666Y-126212142D01*
X96205000Y-126069285D01*
X96271666Y-125926428D01*
X96338333Y-125640714D01*
X96338333Y-125426428D01*
X96271666Y-125140714D01*
X96205000Y-124997857D01*
X96071666Y-124855000D01*
X95871666Y-124783571D01*
X95738333Y-124783571D01*
X95538333Y-124855000D01*
X95471666Y-124926428D01*
X95005000Y-126855000D02*
X94938333Y-126783571D01*
X94805000Y-126569285D01*
X94738333Y-126426428D01*
X94671666Y-126212142D01*
X94605000Y-125855000D01*
X94605000Y-125569285D01*
X94671666Y-125212142D01*
X94738333Y-124997857D01*
X94805000Y-124855000D01*
X94938333Y-124640714D01*
X95005000Y-124569285D01*
X92938333Y-124926428D02*
X92871666Y-124855000D01*
X92738333Y-124783571D01*
X92405000Y-124783571D01*
X92271666Y-124855000D01*
X92205000Y-124926428D01*
X92138333Y-125069285D01*
X92138333Y-125212142D01*
X92205000Y-125426428D01*
X93005000Y-126283571D01*
X92138333Y-126283571D01*
X91271666Y-124783571D02*
X91138333Y-124783571D01*
X91005000Y-124855000D01*
X90938333Y-124926428D01*
X90871666Y-125069285D01*
X90805000Y-125355000D01*
X90805000Y-125712142D01*
X90871666Y-125997857D01*
X90938333Y-126140714D01*
X91005000Y-126212142D01*
X91138333Y-126283571D01*
X91271666Y-126283571D01*
X91405000Y-126212142D01*
X91471666Y-126140714D01*
X91538333Y-125997857D01*
X91605000Y-125712142D01*
X91605000Y-125355000D01*
X91538333Y-125069285D01*
X91471666Y-124926428D01*
X91405000Y-124855000D01*
X91271666Y-124783571D01*
X90271666Y-124926428D02*
X90205000Y-124855000D01*
X90071666Y-124783571D01*
X89738333Y-124783571D01*
X89605000Y-124855000D01*
X89538333Y-124926428D01*
X89471666Y-125069285D01*
X89471666Y-125212142D01*
X89538333Y-125426428D01*
X90338333Y-126283571D01*
X89471666Y-126283571D01*
X88605000Y-124783571D02*
X88471666Y-124783571D01*
X88338333Y-124855000D01*
X88271666Y-124926428D01*
X88205000Y-125069285D01*
X88138333Y-125355000D01*
X88138333Y-125712142D01*
X88205000Y-125997857D01*
X88271666Y-126140714D01*
X88338333Y-126212142D01*
X88471666Y-126283571D01*
X88605000Y-126283571D01*
X88738333Y-126212142D01*
X88805000Y-126140714D01*
X88871666Y-125997857D01*
X88938333Y-125712142D01*
X88938333Y-125355000D01*
X88871666Y-125069285D01*
X88805000Y-124926428D01*
X88738333Y-124855000D01*
X88605000Y-124783571D01*
D13*
X41021000Y-45950000D02*
X41021000Y-58650000D01*
X47879000Y-58550000D02*
X47879000Y-45950000D01*
X41021000Y-58650000D02*
X43350000Y-58650000D01*
X45550000Y-58650000D02*
X47750000Y-58650000D01*
X45550000Y-45950000D02*
X47879000Y-45950000D01*
X41021000Y-45950000D02*
X43350000Y-45950000D01*
X45550000Y-55700000D02*
X47750000Y-55700000D01*
X41071000Y-55700000D02*
X43400000Y-55700000D01*
X43455000Y-72410000D02*
X46135000Y-72410000D01*
X46135000Y-66170000D02*
X43455000Y-66170000D01*
X41675000Y-66320000D02*
X41675000Y-72260000D01*
X47915000Y-66320000D02*
X47915000Y-72260000D01*
X46209214Y-69290000D02*
G75*
G03*
X46209214Y-69290000I-1414214J0D01*
G01*
X133625000Y-56535000D02*
X130535000Y-56535000D01*
X134580000Y-53975000D02*
G75*
G03*
X134580000Y-53975000I-2500000J0D01*
G01*
X132080462Y-50985000D02*
G75*
G03*
X130535170Y-56535000I-462J-2990000D01*
G01*
X132079538Y-50985000D02*
G75*
G02*
X133624830Y-56535000I462J-2990000D01*
G01*
X133625000Y-63520000D02*
X130535000Y-63520000D01*
X134580000Y-60960000D02*
G75*
G03*
X134580000Y-60960000I-2500000J0D01*
G01*
X132080462Y-57970000D02*
G75*
G03*
X130535170Y-63520000I-462J-2990000D01*
G01*
X132079538Y-57970000D02*
G75*
G02*
X133624830Y-63520000I462J-2990000D01*
G01*
D10*
X49656904Y-52474761D02*
X49514047Y-52522380D01*
X49275952Y-52522380D01*
X49180714Y-52474761D01*
X49133095Y-52427142D01*
X49085476Y-52331904D01*
X49085476Y-52236666D01*
X49133095Y-52141428D01*
X49180714Y-52093809D01*
X49275952Y-52046190D01*
X49466428Y-51998571D01*
X49561666Y-51950952D01*
X49609285Y-51903333D01*
X49656904Y-51808095D01*
X49656904Y-51712857D01*
X49609285Y-51617619D01*
X49561666Y-51570000D01*
X49466428Y-51522380D01*
X49228333Y-51522380D01*
X49085476Y-51570000D01*
X48704523Y-51617619D02*
X48656904Y-51570000D01*
X48561666Y-51522380D01*
X48323571Y-51522380D01*
X48228333Y-51570000D01*
X48180714Y-51617619D01*
X48133095Y-51712857D01*
X48133095Y-51808095D01*
X48180714Y-51950952D01*
X48752142Y-52522380D01*
X48133095Y-52522380D01*
X50291904Y-69619761D02*
X50149047Y-69667380D01*
X49910952Y-69667380D01*
X49815714Y-69619761D01*
X49768095Y-69572142D01*
X49720476Y-69476904D01*
X49720476Y-69381666D01*
X49768095Y-69286428D01*
X49815714Y-69238809D01*
X49910952Y-69191190D01*
X50101428Y-69143571D01*
X50196666Y-69095952D01*
X50244285Y-69048333D01*
X50291904Y-68953095D01*
X50291904Y-68857857D01*
X50244285Y-68762619D01*
X50196666Y-68715000D01*
X50101428Y-68667380D01*
X49863333Y-68667380D01*
X49720476Y-68715000D01*
X48768095Y-69667380D02*
X49339523Y-69667380D01*
X49053809Y-69667380D02*
X49053809Y-68667380D01*
X49149047Y-68810238D01*
X49244285Y-68905476D01*
X49339523Y-68953095D01*
X128373095Y-55062380D02*
X128373095Y-54062380D01*
X128135000Y-54062380D01*
X127992142Y-54110000D01*
X127896904Y-54205238D01*
X127849285Y-54300476D01*
X127801666Y-54490952D01*
X127801666Y-54633809D01*
X127849285Y-54824285D01*
X127896904Y-54919523D01*
X127992142Y-55014761D01*
X128135000Y-55062380D01*
X128373095Y-55062380D01*
X127468333Y-54062380D02*
X126849285Y-54062380D01*
X127182619Y-54443333D01*
X127039761Y-54443333D01*
X126944523Y-54490952D01*
X126896904Y-54538571D01*
X126849285Y-54633809D01*
X126849285Y-54871904D01*
X126896904Y-54967142D01*
X126944523Y-55014761D01*
X127039761Y-55062380D01*
X127325476Y-55062380D01*
X127420714Y-55014761D01*
X127468333Y-54967142D01*
X128373095Y-62047380D02*
X128373095Y-61047380D01*
X128135000Y-61047380D01*
X127992142Y-61095000D01*
X127896904Y-61190238D01*
X127849285Y-61285476D01*
X127801666Y-61475952D01*
X127801666Y-61618809D01*
X127849285Y-61809285D01*
X127896904Y-61904523D01*
X127992142Y-61999761D01*
X128135000Y-62047380D01*
X128373095Y-62047380D01*
X126896904Y-61047380D02*
X127373095Y-61047380D01*
X127420714Y-61523571D01*
X127373095Y-61475952D01*
X127277857Y-61428333D01*
X127039761Y-61428333D01*
X126944523Y-61475952D01*
X126896904Y-61523571D01*
X126849285Y-61618809D01*
X126849285Y-61856904D01*
X126896904Y-61952142D01*
X126944523Y-61999761D01*
X127039761Y-62047380D01*
X127277857Y-62047380D01*
X127373095Y-61999761D01*
X127420714Y-61952142D01*
M02*
