G04 #@! TF.GenerationSoftware,KiCad,Pcbnew,5.99.0-unknown-4dfe630~86~ubuntu19.10.1*
G04 #@! TF.CreationDate,2020-03-08T16:29:21+04:00*
G04 #@! TF.ProjectId,beta128_r0.3,62657461-3132-4385-9f72-302e332e6b69,rev?*
G04 #@! TF.SameCoordinates,Original*
G04 #@! TF.FileFunction,Profile,NP*
%FSLAX46Y46*%
G04 Gerber Fmt 4.6, Leading zero omitted, Abs format (unit mm)*
G04 Created by KiCad (PCBNEW 5.99.0-unknown-4dfe630~86~ubuntu19.10.1) date 2020-03-08 16:29:21*
%MOMM*%
%LPD*%
G01*
G04 APERTURE LIST*
%ADD10C,0.100000*%
G04 APERTURE END LIST*
D10*
X116205000Y-170180000D02*
X133985000Y-170180000D01*
X38100000Y-170180000D02*
X83185000Y-170180000D01*
X123190000Y-171450000D02*
X116205000Y-171450000D01*
X41275000Y-171450000D02*
X83185000Y-171450000D01*
X83185000Y-171450000D02*
X83185000Y-170180000D01*
X116205000Y-171450000D02*
X116205000Y-170180000D01*
X123190000Y-184150000D02*
X123190000Y-171450000D01*
X106045000Y-184150000D02*
X123190000Y-184150000D01*
X106045000Y-176530000D02*
X106045000Y-184150000D01*
X103505000Y-176530000D02*
X106045000Y-176530000D01*
X103505000Y-184150000D02*
X103505000Y-176530000D01*
X41275000Y-184150000D02*
X103505000Y-184150000D01*
X41275000Y-171450000D02*
X41275000Y-184150000D01*
X137795000Y-170180000D02*
X137795000Y-171450000D01*
X133985000Y-171450000D02*
X133985000Y-170180000D01*
X129540000Y-171450000D02*
X133985000Y-171450000D01*
X137795000Y-179070000D02*
X137795000Y-171450000D01*
X129540000Y-179070000D02*
X129540000Y-171450000D01*
X137795000Y-179070000D02*
X129540000Y-179070000D01*
X38100000Y-170180000D02*
X38100000Y-34290000D01*
X137795000Y-34290000D02*
X38100000Y-34290000D01*
X137795000Y-170180000D02*
X137795000Y-34290000D01*
M02*
